[
  {
    "start": 1.8808,
    "end": 3.3669,
    "pitch": 40,
    "string": 6,
    "fret": 0,
    "velocity": 0.9998,
    "source": "pure_moe"
  },
  {
    "start": 1.8808,
    "end": 2.4381,
    "pitch": 71,
    "string": 1,
    "fret": 7,
    "velocity": 0.9999,
    "source": "pure_moe"
  },
  {
    "start": 2.113,
    "end": 2.7864,
    "pitch": 59,
    "string": 2,
    "fret": 0,
    "velocity": 0.995,
    "source": "pure_moe"
  },
  {
    "start": 2.322,
    "end": 3.0186,
    "pitch": 55,
    "string": 3,
    "fret": 0,
    "velocity": 0.9975,
    "source": "pure_moe"
  },
  {
    "start": 2.4381,
    "end": 2.5542,
    "pitch": 71,
    "string": 1,
    "fret": 7,
    "velocity": 0.9863,
    "source": "pure_moe"
  },
  {
    "start": 2.5542,
    "end": 3.2508,
    "pitch": 71,
    "string": 1,
    "fret": 7,
    "velocity": 0.9983,
    "source": "pure_moe"
  },
  {
    "start": 2.7864,
    "end": 3.483,
    "pitch": 59,
    "string": 2,
    "fret": 0,
    "velocity": 0.9962,
    "source": "pure_moe"
  },
  {
    "start": 3.0186,
    "end": 3.692,
    "pitch": 55,
    "string": 3,
    "fret": 0,
    "velocity": 0.995,
    "source": "pure_moe"
  },
  {
    "start": 3.2508,
    "end": 3.3669,
    "pitch": 71,
    "string": 1,
    "fret": 7,
    "velocity": 0.9984,
    "source": "pure_moe"
  },
  {
    "start": 3.3669,
    "end": 3.9242,
    "pitch": 71,
    "string": 1,
    "fret": 7,
    "velocity": 0.7571,
    "source": "pure_moe"
  },
  {
    "start": 3.483,
    "end": 4.1564,
    "pitch": 59,
    "string": 2,
    "fret": 0,
    "velocity": 0.997,
    "source": "pure_moe"
  },
  {
    "start": 3.692,
    "end": 4.3886,
    "pitch": 55,
    "string": 3,
    "fret": 0,
    "velocity": 0.9963,
    "source": "pure_moe"
  },
  {
    "start": 3.9242,
    "end": 5.4102,
    "pitch": 40,
    "string": 6,
    "fret": 0,
    "velocity": 0.999,
    "source": "pure_moe"
  },
  {
    "start": 3.9242,
    "end": 4.5047,
    "pitch": 71,
    "string": 1,
    "fret": 7,
    "velocity": 0.9997,
    "source": "pure_moe"
  },
  {
    "start": 4.1564,
    "end": 4.8298,
    "pitch": 59,
    "string": 2,
    "fret": 0,
    "velocity": 0.9978,
    "source": "pure_moe"
  },
  {
    "start": 4.3886,
    "end": 5.062,
    "pitch": 55,
    "string": 3,
    "fret": 0,
    "velocity": 0.9922,
    "source": "pure_moe"
  },
  {
    "start": 4.5047,
    "end": 4.5976,
    "pitch": 71,
    "string": 1,
    "fret": 7,
    "velocity": 0.9434,
    "source": "pure_moe"
  },
  {
    "start": 4.5976,
    "end": 4.7137,
    "pitch": 69,
    "string": 1,
    "fret": 5,
    "velocity": 0.9966,
    "source": "pure_moe"
  },
  {
    "start": 4.7137,
    "end": 5.178,
    "pitch": 69,
    "string": 1,
    "fret": 5,
    "velocity": 0.9802,
    "source": "pure_moe"
  },
  {
    "start": 4.8298,
    "end": 5.5263,
    "pitch": 59,
    "string": 2,
    "fret": 0,
    "velocity": 0.9935,
    "source": "pure_moe"
  },
  {
    "start": 5.062,
    "end": 5.7353,
    "pitch": 55,
    "string": 3,
    "fret": 0,
    "velocity": 0.9968,
    "source": "pure_moe"
  },
  {
    "start": 5.178,
    "end": 5.2941,
    "pitch": 67,
    "string": 1,
    "fret": 3,
    "velocity": 0.9186,
    "source": "pure_moe"
  },
  {
    "start": 5.2941,
    "end": 5.9907,
    "pitch": 67,
    "string": 1,
    "fret": 3,
    "velocity": 0.9972,
    "source": "pure_moe"
  },
  {
    "start": 5.5263,
    "end": 6.1997,
    "pitch": 59,
    "string": 2,
    "fret": 0,
    "velocity": 0.998,
    "source": "pure_moe"
  },
  {
    "start": 5.7353,
    "end": 6.4319,
    "pitch": 55,
    "string": 3,
    "fret": 0,
    "velocity": 0.9979,
    "source": "pure_moe"
  },
  {
    "start": 5.9907,
    "end": 7.4768,
    "pitch": 40,
    "string": 6,
    "fret": 0,
    "velocity": 0.9992,
    "source": "pure_moe"
  },
  {
    "start": 5.9907,
    "end": 6.5712,
    "pitch": 67,
    "string": 1,
    "fret": 3,
    "velocity": 0.9978,
    "source": "pure_moe"
  },
  {
    "start": 6.1997,
    "end": 6.8963,
    "pitch": 59,
    "string": 2,
    "fret": 0,
    "velocity": 0.9961,
    "source": "pure_moe"
  },
  {
    "start": 6.4319,
    "end": 7.1053,
    "pitch": 55,
    "string": 3,
    "fret": 0,
    "velocity": 0.9971,
    "source": "pure_moe"
  },
  {
    "start": 6.5712,
    "end": 6.6177,
    "pitch": 67,
    "string": 1,
    "fret": 3,
    "velocity": 0.7604,
    "source": "pure_moe"
  },
  {
    "start": 6.6177,
    "end": 6.6641,
    "pitch": 67,
    "string": 1,
    "fret": 3,
    "velocity": 0.9982,
    "source": "pure_moe"
  },
  {
    "start": 6.6641,
    "end": 6.757,
    "pitch": 66,
    "string": 1,
    "fret": 2,
    "velocity": 0.999,
    "source": "pure_moe"
  },
  {
    "start": 6.757,
    "end": 7.0124,
    "pitch": 66,
    "string": 1,
    "fret": 2,
    "velocity": 0.9626,
    "source": "pure_moe"
  },
  {
    "start": 6.8963,
    "end": 7.5697,
    "pitch": 59,
    "string": 2,
    "fret": 0,
    "velocity": 0.9889,
    "source": "pure_moe"
  },
  {
    "start": 7.0124,
    "end": 7.2214,
    "pitch": 66,
    "string": 1,
    "fret": 2,
    "velocity": 0.9516,
    "source": "pure_moe"
  },
  {
    "start": 7.1053,
    "end": 7.8019,
    "pitch": 55,
    "string": 3,
    "fret": 0,
    "velocity": 0.9925,
    "source": "pure_moe"
  },
  {
    "start": 7.2214,
    "end": 7.3375,
    "pitch": 67,
    "string": 1,
    "fret": 3,
    "velocity": 0.9685,
    "source": "pure_moe"
  },
  {
    "start": 7.3375,
    "end": 8.0341,
    "pitch": 64,
    "string": 1,
    "fret": 0,
    "velocity": 0.9997,
    "source": "pure_moe"
  },
  {
    "start": 7.5697,
    "end": 8.2431,
    "pitch": 59,
    "string": 2,
    "fret": 0,
    "velocity": 0.9979,
    "source": "pure_moe"
  },
  {
    "start": 7.8019,
    "end": 8.4753,
    "pitch": 55,
    "string": 3,
    "fret": 0,
    "velocity": 0.9952,
    "source": "pure_moe"
  },
  {
    "start": 8.0341,
    "end": 9.5202,
    "pitch": 40,
    "string": 6,
    "fret": 0,
    "velocity": 0.998,
    "source": "pure_moe"
  },
  {
    "start": 8.0341,
    "end": 8.3592,
    "pitch": 64,
    "string": 1,
    "fret": 0,
    "velocity": 0.9953,
    "source": "pure_moe"
  },
  {
    "start": 8.2431,
    "end": 8.9397,
    "pitch": 59,
    "string": 2,
    "fret": 0,
    "velocity": 0.9913,
    "source": "pure_moe"
  },
  {
    "start": 8.3592,
    "end": 8.7075,
    "pitch": 64,
    "string": 1,
    "fret": 0,
    "velocity": 0.9423,
    "source": "pure_moe"
  },
  {
    "start": 8.4753,
    "end": 9.1719,
    "pitch": 55,
    "string": 3,
    "fret": 0,
    "velocity": 0.9918,
    "source": "pure_moe"
  },
  {
    "start": 8.7075,
    "end": 9.3809,
    "pitch": 67,
    "string": 1,
    "fret": 3,
    "velocity": 0.9979,
    "source": "pure_moe"
  },
  {
    "start": 8.9397,
    "end": 9.6131,
    "pitch": 59,
    "string": 2,
    "fret": 0,
    "velocity": 0.9952,
    "source": "pure_moe"
  },
  {
    "start": 9.1719,
    "end": 9.822,
    "pitch": 55,
    "string": 3,
    "fret": 0,
    "velocity": 0.9943,
    "source": "pure_moe"
  },
  {
    "start": 9.3809,
    "end": 10.0542,
    "pitch": 71,
    "string": 1,
    "fret": 7,
    "velocity": 0.9942,
    "source": "pure_moe"
  },
  {
    "start": 9.6131,
    "end": 10.2864,
    "pitch": 59,
    "string": 2,
    "fret": 0,
    "velocity": 0.9975,
    "source": "pure_moe"
  },
  {
    "start": 9.822,
    "end": 10.5186,
    "pitch": 55,
    "string": 3,
    "fret": 0,
    "velocity": 0.9946,
    "source": "pure_moe"
  },
  {
    "start": 10.0542,
    "end": 11.5403,
    "pitch": 40,
    "string": 6,
    "fret": 0,
    "velocity": 0.9995,
    "source": "pure_moe"
  },
  {
    "start": 10.0542,
    "end": 10.6347,
    "pitch": 76,
    "string": 1,
    "fret": 12,
    "velocity": 0.9995,
    "source": "pure_moe"
  },
  {
    "start": 10.2864,
    "end": 10.983,
    "pitch": 59,
    "string": 2,
    "fret": 0,
    "velocity": 0.9987,
    "source": "pure_moe"
  },
  {
    "start": 10.5186,
    "end": 11.192,
    "pitch": 55,
    "string": 3,
    "fret": 0,
    "velocity": 0.996,
    "source": "pure_moe"
  },
  {
    "start": 10.6347,
    "end": 10.7508,
    "pitch": 76,
    "string": 1,
    "fret": 12,
    "velocity": 0.9476,
    "source": "pure_moe"
  },
  {
    "start": 10.7508,
    "end": 11.4242,
    "pitch": 76,
    "string": 1,
    "fret": 12,
    "velocity": 0.9994,
    "source": "pure_moe"
  },
  {
    "start": 10.983,
    "end": 11.6564,
    "pitch": 59,
    "string": 2,
    "fret": 0,
    "velocity": 0.9985,
    "source": "pure_moe"
  },
  {
    "start": 11.192,
    "end": 11.8886,
    "pitch": 55,
    "string": 3,
    "fret": 0,
    "velocity": 0.9965,
    "source": "pure_moe"
  },
  {
    "start": 11.4242,
    "end": 11.5403,
    "pitch": 76,
    "string": 1,
    "fret": 12,
    "velocity": 0.9995,
    "source": "pure_moe"
  },
  {
    "start": 11.5403,
    "end": 12.0976,
    "pitch": 76,
    "string": 1,
    "fret": 12,
    "velocity": 0.946,
    "source": "pure_moe"
  },
  {
    "start": 11.6564,
    "end": 12.353,
    "pitch": 59,
    "string": 2,
    "fret": 0,
    "velocity": 0.9963,
    "source": "pure_moe"
  },
  {
    "start": 11.8886,
    "end": 12.562,
    "pitch": 55,
    "string": 3,
    "fret": 0,
    "velocity": 0.9978,
    "source": "pure_moe"
  },
  {
    "start": 12.0976,
    "end": 13.5837,
    "pitch": 40,
    "string": 6,
    "fret": 0,
    "velocity": 0.9979,
    "source": "pure_moe"
  },
  {
    "start": 12.0976,
    "end": 12.7942,
    "pitch": 76,
    "string": 1,
    "fret": 12,
    "velocity": 0.9937,
    "source": "pure_moe"
  },
  {
    "start": 12.353,
    "end": 13.0032,
    "pitch": 59,
    "string": 2,
    "fret": 0,
    "velocity": 0.9989,
    "source": "pure_moe"
  },
  {
    "start": 12.562,
    "end": 13.2354,
    "pitch": 55,
    "string": 3,
    "fret": 0,
    "velocity": 0.9979,
    "source": "pure_moe"
  },
  {
    "start": 12.7942,
    "end": 13.4908,
    "pitch": 74,
    "string": 1,
    "fret": 10,
    "velocity": 0.997,
    "source": "pure_moe"
  },
  {
    "start": 13.0032,
    "end": 13.6766,
    "pitch": 59,
    "string": 2,
    "fret": 0,
    "velocity": 0.9945,
    "source": "pure_moe"
  },
  {
    "start": 13.2354,
    "end": 13.932,
    "pitch": 55,
    "string": 3,
    "fret": 0,
    "velocity": 0.9977,
    "source": "pure_moe"
  },
  {
    "start": 13.4908,
    "end": 14.1642,
    "pitch": 72,
    "string": 1,
    "fret": 8,
    "velocity": 0.9991,
    "source": "pure_moe"
  },
  {
    "start": 13.6766,
    "end": 14.3732,
    "pitch": 59,
    "string": 2,
    "fret": 0,
    "velocity": 0.9968,
    "source": "pure_moe"
  },
  {
    "start": 13.932,
    "end": 14.6054,
    "pitch": 55,
    "string": 3,
    "fret": 0,
    "velocity": 0.9971,
    "source": "pure_moe"
  },
  {
    "start": 14.1642,
    "end": 15.6502,
    "pitch": 45,
    "string": 5,
    "fret": 0,
    "velocity": 0.9962,
    "source": "pure_moe"
  },
  {
    "start": 14.1642,
    "end": 14.3732,
    "pitch": 72,
    "string": 1,
    "fret": 8,
    "velocity": 0.9991,
    "source": "pure_moe"
  },
  {
    "start": 14.3732,
    "end": 15.0698,
    "pitch": 64,
    "string": 2,
    "fret": 5,
    "velocity": 0.991,
    "source": "pure_moe"
  },
  {
    "start": 14.3732,
    "end": 14.8376,
    "pitch": 72,
    "string": 1,
    "fret": 8,
    "velocity": 0.9882,
    "source": "pure_moe"
  },
  {
    "start": 14.6054,
    "end": 15.302,
    "pitch": 60,
    "string": 3,
    "fret": 5,
    "velocity": 0.9783,
    "source": "pure_moe"
  },
  {
    "start": 14.8376,
    "end": 15.0698,
    "pitch": 71,
    "string": 1,
    "fret": 7,
    "velocity": 0.9985,
    "source": "pure_moe"
  },
  {
    "start": 15.0698,
    "end": 15.7431,
    "pitch": 64,
    "string": 2,
    "fret": 5,
    "velocity": 0.961,
    "source": "pure_moe"
  },
  {
    "start": 15.0698,
    "end": 15.5109,
    "pitch": 71,
    "string": 1,
    "fret": 7,
    "velocity": 0.9855,
    "source": "pure_moe"
  },
  {
    "start": 15.302,
    "end": 15.9753,
    "pitch": 60,
    "string": 3,
    "fret": 5,
    "velocity": 0.9921,
    "source": "pure_moe"
  },
  {
    "start": 15.5109,
    "end": 15.7431,
    "pitch": 69,
    "string": 1,
    "fret": 5,
    "velocity": 0.9992,
    "source": "pure_moe"
  },
  {
    "start": 15.7431,
    "end": 16.4397,
    "pitch": 64,
    "string": 2,
    "fret": 5,
    "velocity": 0.9882,
    "source": "pure_moe"
  },
  {
    "start": 15.7431,
    "end": 16.2075,
    "pitch": 69,
    "string": 1,
    "fret": 5,
    "velocity": 0.9937,
    "source": "pure_moe"
  },
  {
    "start": 15.9753,
    "end": 16.6719,
    "pitch": 60,
    "string": 3,
    "fret": 5,
    "velocity": 0.9966,
    "source": "pure_moe"
  },
  {
    "start": 16.2075,
    "end": 17.6936,
    "pitch": 45,
    "string": 5,
    "fret": 0,
    "velocity": 0.9959,
    "source": "pure_moe"
  },
  {
    "start": 16.2075,
    "end": 16.4397,
    "pitch": 69,
    "string": 1,
    "fret": 5,
    "velocity": 0.9988,
    "source": "pure_moe"
  },
  {
    "start": 16.4397,
    "end": 17.1131,
    "pitch": 64,
    "string": 2,
    "fret": 5,
    "velocity": 0.9836,
    "source": "pure_moe"
  },
  {
    "start": 16.4397,
    "end": 16.8112,
    "pitch": 69,
    "string": 1,
    "fret": 5,
    "velocity": 0.9762,
    "source": "pure_moe"
  },
  {
    "start": 16.6719,
    "end": 17.3221,
    "pitch": 60,
    "string": 3,
    "fret": 5,
    "velocity": 0.9964,
    "source": "pure_moe"
  },
  {
    "start": 16.8112,
    "end": 16.9041,
    "pitch": 69,
    "string": 1,
    "fret": 5,
    "velocity": 0.8746,
    "source": "pure_moe"
  },
  {
    "start": 16.9041,
    "end": 17.1131,
    "pitch": 71,
    "string": 1,
    "fret": 7,
    "velocity": 0.9992,
    "source": "pure_moe"
  },
  {
    "start": 17.1131,
    "end": 17.7865,
    "pitch": 64,
    "string": 2,
    "fret": 5,
    "velocity": 0.9737,
    "source": "pure_moe"
  },
  {
    "start": 17.1131,
    "end": 17.5543,
    "pitch": 71,
    "string": 1,
    "fret": 7,
    "velocity": 0.9921,
    "source": "pure_moe"
  },
  {
    "start": 17.3221,
    "end": 18.0187,
    "pitch": 60,
    "string": 3,
    "fret": 5,
    "velocity": 0.9929,
    "source": "pure_moe"
  },
  {
    "start": 17.5543,
    "end": 17.7865,
    "pitch": 72,
    "string": 1,
    "fret": 8,
    "velocity": 0.9989,
    "source": "pure_moe"
  },
  {
    "start": 17.7865,
    "end": 18.4831,
    "pitch": 64,
    "string": 2,
    "fret": 5,
    "velocity": 0.9779,
    "source": "pure_moe"
  },
  {
    "start": 17.7865,
    "end": 18.2509,
    "pitch": 72,
    "string": 1,
    "fret": 8,
    "velocity": 0.9943,
    "source": "pure_moe"
  },
  {
    "start": 18.0187,
    "end": 18.6921,
    "pitch": 60,
    "string": 3,
    "fret": 5,
    "velocity": 0.9897,
    "source": "pure_moe"
  },
  {
    "start": 18.2509,
    "end": 19.737,
    "pitch": 47,
    "string": 5,
    "fret": 2,
    "velocity": 0.9983,
    "source": "pure_moe"
  },
  {
    "start": 18.2509,
    "end": 18.4831,
    "pitch": 71,
    "string": 1,
    "fret": 7,
    "velocity": 0.9979,
    "source": "pure_moe"
  },
  {
    "start": 18.4831,
    "end": 18.6921,
    "pitch": 66,
    "string": 2,
    "fret": 7,
    "velocity": 0.9903,
    "source": "pure_moe"
  },
  {
    "start": 18.4831,
    "end": 18.9243,
    "pitch": 71,
    "string": 1,
    "fret": 7,
    "velocity": 0.9825,
    "source": "pure_moe"
  },
  {
    "start": 18.6921,
    "end": 19.3887,
    "pitch": 63,
    "string": 3,
    "fret": 8,
    "velocity": 0.9781,
    "source": "pure_moe"
  },
  {
    "start": 18.6921,
    "end": 19.1565,
    "pitch": 66,
    "string": 2,
    "fret": 7,
    "velocity": 0.8744,
    "source": "pure_moe"
  },
  {
    "start": 18.9243,
    "end": 19.1565,
    "pitch": 72,
    "string": 1,
    "fret": 8,
    "velocity": 0.9994,
    "source": "pure_moe"
  },
  {
    "start": 19.1565,
    "end": 19.8298,
    "pitch": 66,
    "string": 2,
    "fret": 7,
    "velocity": 0.9941,
    "source": "pure_moe"
  },
  {
    "start": 19.1565,
    "end": 19.6209,
    "pitch": 72,
    "string": 1,
    "fret": 8,
    "velocity": 0.9487,
    "source": "pure_moe"
  },
  {
    "start": 19.3887,
    "end": 20.062,
    "pitch": 63,
    "string": 3,
    "fret": 8,
    "velocity": 0.9813,
    "source": "pure_moe"
  },
  {
    "start": 19.6209,
    "end": 19.8298,
    "pitch": 71,
    "string": 1,
    "fret": 7,
    "velocity": 0.9989,
    "source": "pure_moe"
  },
  {
    "start": 19.8298,
    "end": 20.5032,
    "pitch": 66,
    "string": 2,
    "fret": 7,
    "velocity": 0.9958,
    "source": "pure_moe"
  },
  {
    "start": 19.8298,
    "end": 20.2942,
    "pitch": 71,
    "string": 1,
    "fret": 7,
    "velocity": 0.963,
    "source": "pure_moe"
  },
  {
    "start": 20.062,
    "end": 20.7354,
    "pitch": 63,
    "string": 3,
    "fret": 8,
    "velocity": 0.9857,
    "source": "pure_moe"
  },
  {
    "start": 20.2942,
    "end": 21.7803,
    "pitch": 47,
    "string": 6,
    "fret": 7,
    "velocity": 0.9976,
    "source": "pure_moe"
  },
  {
    "start": 20.2942,
    "end": 20.9676,
    "pitch": 75,
    "string": 1,
    "fret": 11,
    "velocity": 0.9971,
    "source": "pure_moe"
  },
  {
    "start": 20.5032,
    "end": 21.1998,
    "pitch": 66,
    "string": 2,
    "fret": 7,
    "velocity": 0.9818,
    "source": "pure_moe"
  },
  {
    "start": 20.7354,
    "end": 21.432,
    "pitch": 63,
    "string": 3,
    "fret": 8,
    "velocity": 0.9942,
    "source": "pure_moe"
  },
  {
    "start": 20.9676,
    "end": 21.6642,
    "pitch": 72,
    "string": 1,
    "fret": 8,
    "velocity": 0.9993,
    "source": "pure_moe"
  },
  {
    "start": 21.1998,
    "end": 21.8732,
    "pitch": 66,
    "string": 2,
    "fret": 7,
    "velocity": 0.9935,
    "source": "pure_moe"
  },
  {
    "start": 21.432,
    "end": 22.1054,
    "pitch": 63,
    "string": 3,
    "fret": 8,
    "velocity": 0.9961,
    "source": "pure_moe"
  },
  {
    "start": 21.6642,
    "end": 21.8732,
    "pitch": 71,
    "string": 1,
    "fret": 7,
    "velocity": 0.9993,
    "source": "pure_moe"
  },
  {
    "start": 21.8732,
    "end": 22.5698,
    "pitch": 66,
    "string": 2,
    "fret": 7,
    "velocity": 0.9912,
    "source": "pure_moe"
  },
  {
    "start": 21.8732,
    "end": 22.3376,
    "pitch": 71,
    "string": 1,
    "fret": 7,
    "velocity": 0.9298,
    "source": "pure_moe"
  },
  {
    "start": 22.1054,
    "end": 22.802,
    "pitch": 63,
    "string": 3,
    "fret": 8,
    "velocity": 0.9717,
    "source": "pure_moe"
  },
  {
    "start": 22.3376,
    "end": 23.8237,
    "pitch": 40,
    "string": 6,
    "fret": 0,
    "velocity": 0.9999,
    "source": "pure_moe"
  },
  {
    "start": 22.3376,
    "end": 23.011,
    "pitch": 71,
    "string": 1,
    "fret": 7,
    "velocity": 0.9997,
    "source": "pure_moe"
  },
  {
    "start": 22.5698,
    "end": 23.2432,
    "pitch": 59,
    "string": 2,
    "fret": 0,
    "velocity": 0.9913,
    "source": "pure_moe"
  },
  {
    "start": 22.802,
    "end": 23.4754,
    "pitch": 55,
    "string": 3,
    "fret": 0,
    "velocity": 0.9946,
    "source": "pure_moe"
  },
  {
    "start": 23.011,
    "end": 23.6844,
    "pitch": 69,
    "string": 1,
    "fret": 5,
    "velocity": 0.9995,
    "source": "pure_moe"
  },
  {
    "start": 23.2432,
    "end": 23.9166,
    "pitch": 59,
    "string": 2,
    "fret": 0,
    "velocity": 0.9949,
    "source": "pure_moe"
  },
  {
    "start": 23.4754,
    "end": 24.1488,
    "pitch": 55,
    "string": 3,
    "fret": 0,
    "velocity": 0.9951,
    "source": "pure_moe"
  },
  {
    "start": 23.6844,
    "end": 24.381,
    "pitch": 67,
    "string": 1,
    "fret": 3,
    "velocity": 0.9965,
    "source": "pure_moe"
  },
  {
    "start": 23.9166,
    "end": 24.6132,
    "pitch": 59,
    "string": 2,
    "fret": 0,
    "velocity": 0.9987,
    "source": "pure_moe"
  },
  {
    "start": 24.1488,
    "end": 24.8454,
    "pitch": 55,
    "string": 3,
    "fret": 0,
    "velocity": 0.9985,
    "source": "pure_moe"
  },
  {
    "start": 24.381,
    "end": 25.867,
    "pitch": 40,
    "string": 6,
    "fret": 0,
    "velocity": 0.999,
    "source": "pure_moe"
  },
  {
    "start": 24.381,
    "end": 25.0543,
    "pitch": 67,
    "string": 1,
    "fret": 3,
    "velocity": 0.9978,
    "source": "pure_moe"
  },
  {
    "start": 24.6132,
    "end": 25.2865,
    "pitch": 59,
    "string": 2,
    "fret": 0,
    "velocity": 0.9943,
    "source": "pure_moe"
  },
  {
    "start": 24.8454,
    "end": 25.5187,
    "pitch": 55,
    "string": 3,
    "fret": 0,
    "velocity": 0.998,
    "source": "pure_moe"
  },
  {
    "start": 25.0543,
    "end": 25.6348,
    "pitch": 66,
    "string": 1,
    "fret": 2,
    "velocity": 0.9997,
    "source": "pure_moe"
  },
  {
    "start": 25.2865,
    "end": 25.9831,
    "pitch": 59,
    "string": 2,
    "fret": 0,
    "velocity": 0.9966,
    "source": "pure_moe"
  },
  {
    "start": 25.5187,
    "end": 26.1921,
    "pitch": 55,
    "string": 3,
    "fret": 0,
    "velocity": 0.999,
    "source": "pure_moe"
  },
  {
    "start": 25.6348,
    "end": 25.7509,
    "pitch": 66,
    "string": 1,
    "fret": 2,
    "velocity": 0.9618,
    "source": "pure_moe"
  },
  {
    "start": 25.7509,
    "end": 26.3082,
    "pitch": 64,
    "string": 1,
    "fret": 0,
    "velocity": 0.9997,
    "source": "pure_moe"
  },
  {
    "start": 25.9831,
    "end": 26.4243,
    "pitch": 59,
    "string": 2,
    "fret": 0,
    "velocity": 0.9987,
    "source": "pure_moe"
  },
  {
    "start": 26.1921,
    "end": 26.8887,
    "pitch": 55,
    "string": 3,
    "fret": 0,
    "velocity": 0.9987,
    "source": "pure_moe"
  },
  {
    "start": 26.3082,
    "end": 26.4243,
    "pitch": 64,
    "string": 1,
    "fret": 0,
    "velocity": 0.8796,
    "source": "pure_moe"
  },
  {
    "start": 26.4243,
    "end": 27.9104,
    "pitch": 47,
    "string": 5,
    "fret": 2,
    "velocity": 0.9993,
    "source": "pure_moe"
  },
  {
    "start": 26.4243,
    "end": 26.6565,
    "pitch": 59,
    "string": 2,
    "fret": 0,
    "velocity": 0.9248,
    "source": "pure_moe"
  },
  {
    "start": 26.4243,
    "end": 26.6565,
    "pitch": 67,
    "string": 1,
    "fret": 3,
    "velocity": 0.9799,
    "source": "pure_moe"
  },
  {
    "start": 26.6565,
    "end": 27.3531,
    "pitch": 59,
    "string": 2,
    "fret": 0,
    "velocity": 0.9941,
    "source": "pure_moe"
  },
  {
    "start": 26.6565,
    "end": 27.1209,
    "pitch": 66,
    "string": 1,
    "fret": 2,
    "velocity": 0.9494,
    "source": "pure_moe"
  },
  {
    "start": 26.8887,
    "end": 27.5621,
    "pitch": 55,
    "string": 3,
    "fret": 0,
    "velocity": 0.998,
    "source": "pure_moe"
  },
  {
    "start": 27.1209,
    "end": 27.5621,
    "pitch": 66,
    "string": 1,
    "fret": 2,
    "velocity": 0.9996,
    "source": "pure_moe"
  },
  {
    "start": 27.3531,
    "end": 28.0033,
    "pitch": 59,
    "string": 2,
    "fret": 0,
    "velocity": 0.996,
    "source": "pure_moe"
  },
  {
    "start": 27.5621,
    "end": 28.2355,
    "pitch": 55,
    "string": 3,
    "fret": 0,
    "velocity": 0.9983,
    "source": "pure_moe"
  },
  {
    "start": 27.5621,
    "end": 27.7943,
    "pitch": 67,
    "string": 1,
    "fret": 3,
    "velocity": 0.9813,
    "source": "pure_moe"
  },
  {
    "start": 27.7943,
    "end": 28.4677,
    "pitch": 66,
    "string": 1,
    "fret": 2,
    "velocity": 0.9994,
    "source": "pure_moe"
  },
  {
    "start": 28.0033,
    "end": 28.4677,
    "pitch": 59,
    "string": 2,
    "fret": 0,
    "velocity": 0.9972,
    "source": "pure_moe"
  },
  {
    "start": 28.2355,
    "end": 28.9321,
    "pitch": 55,
    "string": 3,
    "fret": 0,
    "velocity": 0.9993,
    "source": "pure_moe"
  },
  {
    "start": 28.4677,
    "end": 29.9537,
    "pitch": 47,
    "string": 5,
    "fret": 2,
    "velocity": 0.9984,
    "source": "pure_moe"
  },
  {
    "start": 28.4677,
    "end": 28.6999,
    "pitch": 59,
    "string": 2,
    "fret": 0,
    "velocity": 0.9443,
    "source": "pure_moe"
  },
  {
    "start": 28.4677,
    "end": 29.1643,
    "pitch": 66,
    "string": 1,
    "fret": 2,
    "velocity": 0.9949,
    "source": "pure_moe"
  },
  {
    "start": 28.6999,
    "end": 29.3732,
    "pitch": 59,
    "string": 2,
    "fret": 0,
    "velocity": 0.9937,
    "source": "pure_moe"
  },
  {
    "start": 28.9321,
    "end": 29.6054,
    "pitch": 57,
    "string": 3,
    "fret": 2,
    "velocity": 0.9986,
    "source": "pure_moe"
  },
  {
    "start": 29.1643,
    "end": 29.8376,
    "pitch": 67,
    "string": 1,
    "fret": 3,
    "velocity": 0.9982,
    "source": "pure_moe"
  },
  {
    "start": 29.3732,
    "end": 30.0698,
    "pitch": 59,
    "string": 2,
    "fret": 0,
    "velocity": 0.9949,
    "source": "pure_moe"
  },
  {
    "start": 29.6054,
    "end": 30.302,
    "pitch": 57,
    "string": 3,
    "fret": 2,
    "velocity": 0.9993,
    "source": "pure_moe"
  },
  {
    "start": 29.8376,
    "end": 30.5342,
    "pitch": 66,
    "string": 1,
    "fret": 2,
    "velocity": 0.9974,
    "source": "pure_moe"
  },
  {
    "start": 30.0698,
    "end": 30.7432,
    "pitch": 59,
    "string": 2,
    "fret": 0,
    "velocity": 0.9958,
    "source": "pure_moe"
  },
  {
    "start": 30.302,
    "end": 30.5342,
    "pitch": 57,
    "string": 3,
    "fret": 2,
    "velocity": 0.9992,
    "source": "pure_moe"
  },
  {
    "start": 30.5342,
    "end": 32.0203,
    "pitch": 52,
    "string": 4,
    "fret": 2,
    "velocity": 0.9747,
    "source": "pure_moe"
  },
  {
    "start": 30.5342,
    "end": 30.9754,
    "pitch": 57,
    "string": 3,
    "fret": 2,
    "velocity": 0.8326,
    "source": "pure_moe"
  },
  {
    "start": 30.5342,
    "end": 31.2076,
    "pitch": 64,
    "string": 1,
    "fret": 0,
    "velocity": 0.9994,
    "source": "pure_moe"
  },
  {
    "start": 30.7432,
    "end": 31.4166,
    "pitch": 59,
    "string": 2,
    "fret": 0,
    "velocity": 0.9965,
    "source": "pure_moe"
  },
  {
    "start": 30.9754,
    "end": 31.6488,
    "pitch": 55,
    "string": 3,
    "fret": 0,
    "velocity": 0.9963,
    "source": "pure_moe"
  },
  {
    "start": 31.2076,
    "end": 31.881,
    "pitch": 47,
    "string": 5,
    "fret": 2,
    "velocity": 0.9994,
    "source": "pure_moe"
  },
  {
    "start": 31.2076,
    "end": 31.5327,
    "pitch": 64,
    "string": 1,
    "fret": 0,
    "velocity": 0.9972,
    "source": "pure_moe"
  },
  {
    "start": 31.4166,
    "end": 31.881,
    "pitch": 59,
    "string": 2,
    "fret": 0,
    "velocity": 0.998,
    "source": "pure_moe"
  },
  {
    "start": 31.5327,
    "end": 31.881,
    "pitch": 64,
    "string": 1,
    "fret": 0,
    "velocity": 0.9839,
    "source": "pure_moe"
  },
  {
    "start": 31.6488,
    "end": 31.881,
    "pitch": 55,
    "string": 3,
    "fret": 0,
    "velocity": 0.9908,
    "source": "pure_moe"
  },
  {
    "start": 31.881,
    "end": 32.5544,
    "pitch": 43,
    "string": 6,
    "fret": 3,
    "velocity": 0.9914,
    "source": "pure_moe"
  },
  {
    "start": 31.881,
    "end": 32.5544,
    "pitch": 47,
    "string": 5,
    "fret": 2,
    "velocity": 0.984,
    "source": "pure_moe"
  },
  {
    "start": 31.881,
    "end": 32.3222,
    "pitch": 55,
    "string": 3,
    "fret": 0,
    "velocity": 0.8104,
    "source": "pure_moe"
  },
  {
    "start": 31.881,
    "end": 32.1132,
    "pitch": 59,
    "string": 2,
    "fret": 0,
    "velocity": 0.997,
    "source": "pure_moe"
  },
  {
    "start": 31.881,
    "end": 32.5544,
    "pitch": 64,
    "string": 1,
    "fret": 0,
    "velocity": 0.9988,
    "source": "pure_moe"
  },
  {
    "start": 32.1132,
    "end": 32.5544,
    "pitch": 59,
    "string": 2,
    "fret": 0,
    "velocity": 0.9881,
    "source": "pure_moe"
  },
  {
    "start": 32.3222,
    "end": 32.5544,
    "pitch": 55,
    "string": 3,
    "fret": 0,
    "velocity": 0.9802,
    "source": "pure_moe"
  },
  {
    "start": 32.5544,
    "end": 34.0405,
    "pitch": 40,
    "string": 6,
    "fret": 0,
    "velocity": 0.9996,
    "source": "pure_moe"
  },
  {
    "start": 32.5544,
    "end": 34.0405,
    "pitch": 47,
    "string": 5,
    "fret": 2,
    "velocity": 0.9847,
    "source": "pure_moe"
  },
  {
    "start": 32.5544,
    "end": 34.0405,
    "pitch": 55,
    "string": 3,
    "fret": 0,
    "velocity": 0.9985,
    "source": "pure_moe"
  },
  {
    "start": 32.5544,
    "end": 34.0405,
    "pitch": 59,
    "string": 2,
    "fret": 0,
    "velocity": 0.9999,
    "source": "pure_moe"
  },
  {
    "start": 32.5544,
    "end": 32.6937,
    "pitch": 64,
    "string": 1,
    "fret": 0,
    "velocity": 0.9998,
    "source": "pure_moe"
  },
  {
    "start": 32.6937,
    "end": 32.8098,
    "pitch": 64,
    "string": 1,
    "fret": 0,
    "velocity": 0.969,
    "source": "pure_moe"
  },
  {
    "start": 32.8098,
    "end": 32.9723,
    "pitch": 64,
    "string": 1,
    "fret": 0,
    "velocity": 0.8307,
    "source": "pure_moe"
  },
  {
    "start": 32.9723,
    "end": 33.1581,
    "pitch": 64,
    "string": 1,
    "fret": 0,
    "velocity": 0.9593,
    "source": "pure_moe"
  },
  {
    "start": 33.1581,
    "end": 33.2278,
    "pitch": 64,
    "string": 1,
    "fret": 0,
    "velocity": 0.8983,
    "source": "pure_moe"
  },
  {
    "start": 33.2278,
    "end": 33.3206,
    "pitch": 64,
    "string": 1,
    "fret": 0,
    "velocity": 0.8827,
    "source": "pure_moe"
  },
  {
    "start": 33.3206,
    "end": 33.3671,
    "pitch": 64,
    "string": 1,
    "fret": 0,
    "velocity": 0.7993,
    "source": "pure_moe"
  },
  {
    "start": 33.3671,
    "end": 33.5528,
    "pitch": 64,
    "string": 1,
    "fret": 0,
    "velocity": 0.8831,
    "source": "pure_moe"
  },
  {
    "start": 33.5528,
    "end": 33.7618,
    "pitch": 64,
    "string": 1,
    "fret": 0,
    "velocity": 0.9655,
    "source": "pure_moe"
  },
  {
    "start": 33.7618,
    "end": 33.8779,
    "pitch": 64,
    "string": 1,
    "fret": 0,
    "velocity": 0.958,
    "source": "pure_moe"
  },
  {
    "start": 33.8779,
    "end": 33.9244,
    "pitch": 64,
    "string": 1,
    "fret": 0,
    "velocity": 0.9577,
    "source": "pure_moe"
  },
  {
    "start": 33.9244,
    "end": 33.9708,
    "pitch": 64,
    "string": 1,
    "fret": 0,
    "velocity": 0.9028,
    "source": "pure_moe"
  },
  {
    "start": 33.9708,
    "end": 34.0637,
    "pitch": 64,
    "string": 1,
    "fret": 0,
    "velocity": 0.9132,
    "source": "pure_moe"
  },
  {
    "start": 34.0637,
    "end": 34.1101,
    "pitch": 64,
    "string": 1,
    "fret": 0,
    "velocity": 0.951,
    "source": "pure_moe"
  },
  {
    "start": 34.1101,
    "end": 34.203,
    "pitch": 64,
    "string": 1,
    "fret": 0,
    "velocity": 0.9298,
    "source": "pure_moe"
  },
  {
    "start": 34.203,
    "end": 34.2727,
    "pitch": 64,
    "string": 1,
    "fret": 0,
    "velocity": 0.9465,
    "source": "pure_moe"
  },
  {
    "start": 34.2727,
    "end": 34.412,
    "pitch": 64,
    "string": 1,
    "fret": 0,
    "velocity": 0.9022,
    "source": "pure_moe"
  },
  {
    "start": 34.412,
    "end": 34.5977,
    "pitch": 64,
    "string": 1,
    "fret": 0,
    "velocity": 0.9013,
    "source": "pure_moe"
  },
  {
    "start": 34.5977,
    "end": 36.0838,
    "pitch": 40,
    "string": 6,
    "fret": 0,
    "velocity": 0.9937,
    "source": "pure_moe"
  },
  {
    "start": 34.5977,
    "end": 35.2943,
    "pitch": 71,
    "string": 1,
    "fret": 7,
    "velocity": 0.9979,
    "source": "pure_moe"
  },
  {
    "start": 34.8299,
    "end": 35.5033,
    "pitch": 59,
    "string": 2,
    "fret": 0,
    "velocity": 0.9905,
    "source": "pure_moe"
  },
  {
    "start": 35.0621,
    "end": 35.7355,
    "pitch": 55,
    "string": 3,
    "fret": 0,
    "velocity": 0.9984,
    "source": "pure_moe"
  },
  {
    "start": 35.2943,
    "end": 35.9909,
    "pitch": 71,
    "string": 1,
    "fret": 7,
    "velocity": 0.9988,
    "source": "pure_moe"
  },
  {
    "start": 35.5033,
    "end": 36.1999,
    "pitch": 59,
    "string": 2,
    "fret": 0,
    "velocity": 0.9958,
    "source": "pure_moe"
  },
  {
    "start": 35.7355,
    "end": 36.4321,
    "pitch": 55,
    "string": 3,
    "fret": 0,
    "velocity": 0.9966,
    "source": "pure_moe"
  },
  {
    "start": 35.9909,
    "end": 36.5482,
    "pitch": 71,
    "string": 1,
    "fret": 7,
    "velocity": 0.9968,
    "source": "pure_moe"
  },
  {
    "start": 36.1999,
    "end": 36.8733,
    "pitch": 59,
    "string": 2,
    "fret": 0,
    "velocity": 0.9922,
    "source": "pure_moe"
  },
  {
    "start": 36.4321,
    "end": 37.1055,
    "pitch": 55,
    "string": 3,
    "fret": 0,
    "velocity": 0.9981,
    "source": "pure_moe"
  },
  {
    "start": 36.5482,
    "end": 36.6643,
    "pitch": 71,
    "string": 1,
    "fret": 7,
    "velocity": 0.9334,
    "source": "pure_moe"
  },
  {
    "start": 36.6643,
    "end": 38.1504,
    "pitch": 40,
    "string": 6,
    "fret": 0,
    "velocity": 0.9994,
    "source": "pure_moe"
  },
  {
    "start": 36.6643,
    "end": 37.2448,
    "pitch": 71,
    "string": 1,
    "fret": 7,
    "velocity": 0.9997,
    "source": "pure_moe"
  },
  {
    "start": 36.8733,
    "end": 37.5699,
    "pitch": 59,
    "string": 2,
    "fret": 0,
    "velocity": 0.9971,
    "source": "pure_moe"
  },
  {
    "start": 37.1055,
    "end": 37.8021,
    "pitch": 55,
    "string": 3,
    "fret": 0,
    "velocity": 0.996,
    "source": "pure_moe"
  },
  {
    "start": 37.2448,
    "end": 37.3377,
    "pitch": 67,
    "string": 1,
    "fret": 3,
    "velocity": 0.9729,
    "source": "pure_moe"
  },
  {
    "start": 37.3377,
    "end": 38.0111,
    "pitch": 69,
    "string": 1,
    "fret": 5,
    "velocity": 0.9988,
    "source": "pure_moe"
  },
  {
    "start": 37.5699,
    "end": 38.2433,
    "pitch": 59,
    "string": 2,
    "fret": 0,
    "velocity": 0.994,
    "source": "pure_moe"
  },
  {
    "start": 37.8021,
    "end": 38.4755,
    "pitch": 55,
    "string": 3,
    "fret": 0,
    "velocity": 0.9941,
    "source": "pure_moe"
  },
  {
    "start": 38.0111,
    "end": 38.6844,
    "pitch": 67,
    "string": 1,
    "fret": 3,
    "velocity": 0.9976,
    "source": "pure_moe"
  },
  {
    "start": 38.2433,
    "end": 38.9166,
    "pitch": 59,
    "string": 2,
    "fret": 0,
    "velocity": 0.9983,
    "source": "pure_moe"
  },
  {
    "start": 38.4755,
    "end": 39.1488,
    "pitch": 55,
    "string": 3,
    "fret": 0,
    "velocity": 0.9979,
    "source": "pure_moe"
  },
  {
    "start": 38.6844,
    "end": 40.1705,
    "pitch": 40,
    "string": 6,
    "fret": 0,
    "velocity": 0.9988,
    "source": "pure_moe"
  },
  {
    "start": 38.6844,
    "end": 39.381,
    "pitch": 67,
    "string": 1,
    "fret": 3,
    "velocity": 0.9981,
    "source": "pure_moe"
  },
  {
    "start": 38.9166,
    "end": 39.6132,
    "pitch": 59,
    "string": 2,
    "fret": 0,
    "velocity": 0.9957,
    "source": "pure_moe"
  },
  {
    "start": 39.1488,
    "end": 39.8222,
    "pitch": 55,
    "string": 3,
    "fret": 0,
    "velocity": 0.9973,
    "source": "pure_moe"
  },
  {
    "start": 39.381,
    "end": 40.0544,
    "pitch": 66,
    "string": 1,
    "fret": 2,
    "velocity": 0.9994,
    "source": "pure_moe"
  },
  {
    "start": 39.6132,
    "end": 40.2866,
    "pitch": 59,
    "string": 2,
    "fret": 0,
    "velocity": 0.9973,
    "source": "pure_moe"
  },
  {
    "start": 39.8222,
    "end": 40.5188,
    "pitch": 55,
    "string": 3,
    "fret": 0,
    "velocity": 0.9984,
    "source": "pure_moe"
  },
  {
    "start": 40.0544,
    "end": 40.751,
    "pitch": 64,
    "string": 1,
    "fret": 0,
    "velocity": 0.9994,
    "source": "pure_moe"
  },
  {
    "start": 40.2866,
    "end": 40.9832,
    "pitch": 59,
    "string": 2,
    "fret": 0,
    "velocity": 0.998,
    "source": "pure_moe"
  },
  {
    "start": 40.5188,
    "end": 41.1922,
    "pitch": 55,
    "string": 3,
    "fret": 0,
    "velocity": 0.9963,
    "source": "pure_moe"
  },
  {
    "start": 40.751,
    "end": 42.2371,
    "pitch": 40,
    "string": 6,
    "fret": 0,
    "velocity": 0.9976,
    "source": "pure_moe"
  },
  {
    "start": 40.751,
    "end": 41.4244,
    "pitch": 64,
    "string": 1,
    "fret": 0,
    "velocity": 0.9987,
    "source": "pure_moe"
  },
  {
    "start": 40.9832,
    "end": 41.6566,
    "pitch": 59,
    "string": 2,
    "fret": 0,
    "velocity": 0.9988,
    "source": "pure_moe"
  },
  {
    "start": 41.1922,
    "end": 41.8888,
    "pitch": 55,
    "string": 3,
    "fret": 0,
    "velocity": 0.9915,
    "source": "pure_moe"
  },
  {
    "start": 41.4244,
    "end": 42.0049,
    "pitch": 67,
    "string": 1,
    "fret": 3,
    "velocity": 0.9991,
    "source": "pure_moe"
  },
  {
    "start": 41.6566,
    "end": 42.33,
    "pitch": 59,
    "string": 2,
    "fret": 0,
    "velocity": 0.9964,
    "source": "pure_moe"
  },
  {
    "start": 41.8888,
    "end": 42.5622,
    "pitch": 55,
    "string": 3,
    "fret": 0,
    "velocity": 0.9895,
    "source": "pure_moe"
  },
  {
    "start": 42.0049,
    "end": 42.0978,
    "pitch": 67,
    "string": 1,
    "fret": 3,
    "velocity": 0.9664,
    "source": "pure_moe"
  },
  {
    "start": 42.0978,
    "end": 42.7944,
    "pitch": 71,
    "string": 1,
    "fret": 7,
    "velocity": 0.9894,
    "source": "pure_moe"
  },
  {
    "start": 42.33,
    "end": 43.0034,
    "pitch": 59,
    "string": 2,
    "fret": 0,
    "velocity": 0.9975,
    "source": "pure_moe"
  },
  {
    "start": 42.5622,
    "end": 43.2356,
    "pitch": 55,
    "string": 3,
    "fret": 0,
    "velocity": 0.9938,
    "source": "pure_moe"
  },
  {
    "start": 42.7944,
    "end": 44.2805,
    "pitch": 40,
    "string": 6,
    "fret": 0,
    "velocity": 0.9991,
    "source": "pure_moe"
  },
  {
    "start": 42.7944,
    "end": 43.4678,
    "pitch": 76,
    "string": 1,
    "fret": 12,
    "velocity": 0.9994,
    "source": "pure_moe"
  },
  {
    "start": 43.0034,
    "end": 43.7,
    "pitch": 59,
    "string": 2,
    "fret": 0,
    "velocity": 0.9954,
    "source": "pure_moe"
  },
  {
    "start": 43.2356,
    "end": 43.9322,
    "pitch": 55,
    "string": 3,
    "fret": 0,
    "velocity": 0.9962,
    "source": "pure_moe"
  },
  {
    "start": 43.4678,
    "end": 44.1644,
    "pitch": 76,
    "string": 1,
    "fret": 12,
    "velocity": 0.9983,
    "source": "pure_moe"
  },
  {
    "start": 43.7,
    "end": 44.3733,
    "pitch": 59,
    "string": 2,
    "fret": 0,
    "velocity": 0.9981,
    "source": "pure_moe"
  },
  {
    "start": 43.9322,
    "end": 44.6055,
    "pitch": 55,
    "string": 3,
    "fret": 0,
    "velocity": 0.9979,
    "source": "pure_moe"
  },
  {
    "start": 44.1644,
    "end": 44.2805,
    "pitch": 76,
    "string": 1,
    "fret": 12,
    "velocity": 0.9993,
    "source": "pure_moe"
  },
  {
    "start": 44.2805,
    "end": 44.4894,
    "pitch": 76,
    "string": 1,
    "fret": 12,
    "velocity": 0.8746,
    "source": "pure_moe"
  },
  {
    "start": 44.3733,
    "end": 45.0699,
    "pitch": 59,
    "string": 2,
    "fret": 0,
    "velocity": 0.9984,
    "source": "pure_moe"
  },
  {
    "start": 44.4894,
    "end": 44.7449,
    "pitch": 76,
    "string": 1,
    "fret": 12,
    "velocity": 0.8073,
    "source": "pure_moe"
  },
  {
    "start": 44.6055,
    "end": 45.3021,
    "pitch": 55,
    "string": 3,
    "fret": 0,
    "velocity": 0.9984,
    "source": "pure_moe"
  },
  {
    "start": 44.7449,
    "end": 44.8377,
    "pitch": 76,
    "string": 1,
    "fret": 12,
    "velocity": 0.8347,
    "source": "pure_moe"
  },
  {
    "start": 44.8377,
    "end": 46.3238,
    "pitch": 40,
    "string": 6,
    "fret": 0,
    "velocity": 0.9991,
    "source": "pure_moe"
  },
  {
    "start": 44.8377,
    "end": 44.9771,
    "pitch": 76,
    "string": 1,
    "fret": 12,
    "velocity": 0.9994,
    "source": "pure_moe"
  },
  {
    "start": 44.9771,
    "end": 45.2093,
    "pitch": 76,
    "string": 1,
    "fret": 12,
    "velocity": 0.938,
    "source": "pure_moe"
  },
  {
    "start": 45.0699,
    "end": 45.7433,
    "pitch": 59,
    "string": 2,
    "fret": 0,
    "velocity": 0.9988,
    "source": "pure_moe"
  },
  {
    "start": 45.2093,
    "end": 45.4182,
    "pitch": 76,
    "string": 1,
    "fret": 12,
    "velocity": 0.8247,
    "source": "pure_moe"
  },
  {
    "start": 45.3021,
    "end": 45.9755,
    "pitch": 55,
    "string": 3,
    "fret": 0,
    "velocity": 0.9935,
    "source": "pure_moe"
  },
  {
    "start": 45.4182,
    "end": 45.5111,
    "pitch": 76,
    "string": 1,
    "fret": 12,
    "velocity": 0.7775,
    "source": "pure_moe"
  },
  {
    "start": 45.5111,
    "end": 45.604,
    "pitch": 74,
    "string": 1,
    "fret": 10,
    "velocity": 0.9966,
    "source": "pure_moe"
  },
  {
    "start": 45.604,
    "end": 45.7433,
    "pitch": 74,
    "string": 1,
    "fret": 10,
    "velocity": 0.9374,
    "source": "pure_moe"
  },
  {
    "start": 45.7433,
    "end": 46.4167,
    "pitch": 59,
    "string": 2,
    "fret": 0,
    "velocity": 0.9969,
    "source": "pure_moe"
  },
  {
    "start": 45.7433,
    "end": 46.1845,
    "pitch": 76,
    "string": 1,
    "fret": 12,
    "velocity": 0.8469,
    "source": "pure_moe"
  },
  {
    "start": 45.9755,
    "end": 46.6489,
    "pitch": 55,
    "string": 3,
    "fret": 0,
    "velocity": 0.9955,
    "source": "pure_moe"
  },
  {
    "start": 46.1845,
    "end": 46.3006,
    "pitch": 72,
    "string": 1,
    "fret": 8,
    "velocity": 0.9971,
    "source": "pure_moe"
  },
  {
    "start": 46.3006,
    "end": 46.8811,
    "pitch": 72,
    "string": 1,
    "fret": 8,
    "velocity": 0.9522,
    "source": "pure_moe"
  },
  {
    "start": 46.4167,
    "end": 47.1133,
    "pitch": 59,
    "string": 2,
    "fret": 0,
    "velocity": 0.9974,
    "source": "pure_moe"
  },
  {
    "start": 46.6489,
    "end": 47.3223,
    "pitch": 55,
    "string": 3,
    "fret": 0,
    "velocity": 0.9971,
    "source": "pure_moe"
  },
  {
    "start": 46.8811,
    "end": 48.3672,
    "pitch": 45,
    "string": 5,
    "fret": 0,
    "velocity": 0.9975,
    "source": "pure_moe"
  },
  {
    "start": 46.8811,
    "end": 47.5545,
    "pitch": 72,
    "string": 1,
    "fret": 8,
    "velocity": 0.999,
    "source": "pure_moe"
  },
  {
    "start": 47.1133,
    "end": 48.4833,
    "pitch": 64,
    "string": 2,
    "fret": 5,
    "velocity": 0.9913,
    "source": "pure_moe"
  },
  {
    "start": 47.3223,
    "end": 48.0189,
    "pitch": 60,
    "string": 3,
    "fret": 5,
    "velocity": 0.9913,
    "source": "pure_moe"
  },
  {
    "start": 47.5545,
    "end": 47.8099,
    "pitch": 71,
    "string": 1,
    "fret": 7,
    "velocity": 0.9973,
    "source": "pure_moe"
  },
  {
    "start": 47.8099,
    "end": 48.2511,
    "pitch": 71,
    "string": 1,
    "fret": 7,
    "velocity": 0.9955,
    "source": "pure_moe"
  },
  {
    "start": 48.0189,
    "end": 48.6922,
    "pitch": 60,
    "string": 3,
    "fret": 5,
    "velocity": 0.9903,
    "source": "pure_moe"
  },
  {
    "start": 48.2511,
    "end": 48.4833,
    "pitch": 69,
    "string": 1,
    "fret": 5,
    "velocity": 0.9988,
    "source": "pure_moe"
  },
  {
    "start": 48.4833,
    "end": 49.1566,
    "pitch": 64,
    "string": 2,
    "fret": 5,
    "velocity": 0.9879,
    "source": "pure_moe"
  },
  {
    "start": 48.4833,
    "end": 48.9244,
    "pitch": 69,
    "string": 1,
    "fret": 5,
    "velocity": 0.9966,
    "source": "pure_moe"
  },
  {
    "start": 48.6922,
    "end": 49.3888,
    "pitch": 60,
    "string": 3,
    "fret": 5,
    "velocity": 0.996,
    "source": "pure_moe"
  },
  {
    "start": 48.9244,
    "end": 50.4105,
    "pitch": 45,
    "string": 5,
    "fret": 0,
    "velocity": 0.9947,
    "source": "pure_moe"
  },
  {
    "start": 48.9244,
    "end": 49.0405,
    "pitch": 69,
    "string": 1,
    "fret": 5,
    "velocity": 0.9986,
    "source": "pure_moe"
  },
  {
    "start": 49.0405,
    "end": 49.1566,
    "pitch": 69,
    "string": 1,
    "fret": 5,
    "velocity": 0.9593,
    "source": "pure_moe"
  },
  {
    "start": 49.1566,
    "end": 49.83,
    "pitch": 64,
    "string": 2,
    "fret": 5,
    "velocity": 0.9937,
    "source": "pure_moe"
  },
  {
    "start": 49.1566,
    "end": 49.5978,
    "pitch": 69,
    "string": 1,
    "fret": 5,
    "velocity": 0.9753,
    "source": "pure_moe"
  },
  {
    "start": 49.3888,
    "end": 50.0622,
    "pitch": 60,
    "string": 3,
    "fret": 5,
    "velocity": 0.9519,
    "source": "pure_moe"
  },
  {
    "start": 49.5978,
    "end": 49.83,
    "pitch": 71,
    "string": 1,
    "fret": 7,
    "velocity": 0.9956,
    "source": "pure_moe"
  },
  {
    "start": 49.83,
    "end": 50.0622,
    "pitch": 64,
    "string": 2,
    "fret": 5,
    "velocity": 0.9616,
    "source": "pure_moe"
  },
  {
    "start": 49.83,
    "end": 50.1783,
    "pitch": 71,
    "string": 1,
    "fret": 7,
    "velocity": 0.9933,
    "source": "pure_moe"
  },
  {
    "start": 50.0622,
    "end": 50.7356,
    "pitch": 60,
    "string": 3,
    "fret": 5,
    "velocity": 0.9848,
    "source": "pure_moe"
  },
  {
    "start": 50.0622,
    "end": 50.5034,
    "pitch": 64,
    "string": 2,
    "fret": 5,
    "velocity": 0.7795,
    "source": "pure_moe"
  },
  {
    "start": 50.1783,
    "end": 50.2944,
    "pitch": 71,
    "string": 1,
    "fret": 7,
    "velocity": 0.8685,
    "source": "pure_moe"
  },
  {
    "start": 50.2944,
    "end": 50.5034,
    "pitch": 72,
    "string": 1,
    "fret": 8,
    "velocity": 0.9991,
    "source": "pure_moe"
  },
  {
    "start": 50.5034,
    "end": 50.7356,
    "pitch": 64,
    "string": 2,
    "fret": 5,
    "velocity": 0.9034,
    "source": "pure_moe"
  },
  {
    "start": 50.5034,
    "end": 50.991,
    "pitch": 72,
    "string": 1,
    "fret": 8,
    "velocity": 0.9954,
    "source": "pure_moe"
  },
  {
    "start": 50.7356,
    "end": 51.4322,
    "pitch": 60,
    "string": 3,
    "fret": 5,
    "velocity": 0.9759,
    "source": "pure_moe"
  },
  {
    "start": 50.7356,
    "end": 51.2,
    "pitch": 64,
    "string": 2,
    "fret": 5,
    "velocity": 0.839,
    "source": "pure_moe"
  },
  {
    "start": 50.991,
    "end": 52.4771,
    "pitch": 45,
    "string": 5,
    "fret": 0,
    "velocity": 0.9962,
    "source": "pure_moe"
  },
  {
    "start": 50.991,
    "end": 51.2,
    "pitch": 71,
    "string": 1,
    "fret": 7,
    "velocity": 0.9984,
    "source": "pure_moe"
  },
  {
    "start": 51.2,
    "end": 51.4322,
    "pitch": 66,
    "string": 2,
    "fret": 7,
    "velocity": 0.9871,
    "source": "pure_moe"
  },
  {
    "start": 51.2,
    "end": 51.6644,
    "pitch": 71,
    "string": 1,
    "fret": 7,
    "velocity": 0.9758,
    "source": "pure_moe"
  },
  {
    "start": 51.4322,
    "end": 52.1056,
    "pitch": 63,
    "string": 3,
    "fret": 8,
    "velocity": 0.9871,
    "source": "pure_moe"
  },
  {
    "start": 51.4322,
    "end": 51.8966,
    "pitch": 63,
    "string": 2,
    "fret": 4,
    "velocity": 0.9211,
    "source": "pure_moe"
  },
  {
    "start": 51.6644,
    "end": 51.8966,
    "pitch": 72,
    "string": 1,
    "fret": 8,
    "velocity": 0.9992,
    "source": "pure_moe"
  },
  {
    "start": 51.8966,
    "end": 52.57,
    "pitch": 66,
    "string": 2,
    "fret": 7,
    "velocity": 0.9475,
    "source": "pure_moe"
  },
  {
    "start": 51.8966,
    "end": 52.3378,
    "pitch": 72,
    "string": 1,
    "fret": 8,
    "velocity": 0.9359,
    "source": "pure_moe"
  },
  {
    "start": 52.1056,
    "end": 52.8022,
    "pitch": 63,
    "string": 3,
    "fret": 8,
    "velocity": 0.9946,
    "source": "pure_moe"
  },
  {
    "start": 52.3378,
    "end": 52.57,
    "pitch": 71,
    "string": 1,
    "fret": 7,
    "velocity": 0.9988,
    "source": "pure_moe"
  },
  {
    "start": 52.57,
    "end": 53.2434,
    "pitch": 66,
    "string": 2,
    "fret": 7,
    "velocity": 0.9951,
    "source": "pure_moe"
  },
  {
    "start": 52.57,
    "end": 53.0112,
    "pitch": 71,
    "string": 1,
    "fret": 7,
    "velocity": 0.9625,
    "source": "pure_moe"
  },
  {
    "start": 52.8022,
    "end": 53.4756,
    "pitch": 63,
    "string": 3,
    "fret": 8,
    "velocity": 0.9853,
    "source": "pure_moe"
  },
  {
    "start": 53.0112,
    "end": 54.4972,
    "pitch": 47,
    "string": 6,
    "fret": 7,
    "velocity": 0.9988,
    "source": "pure_moe"
  },
  {
    "start": 53.0112,
    "end": 53.6845,
    "pitch": 75,
    "string": 1,
    "fret": 11,
    "velocity": 0.9972,
    "source": "pure_moe"
  },
  {
    "start": 53.2434,
    "end": 53.9167,
    "pitch": 66,
    "string": 2,
    "fret": 7,
    "velocity": 0.9938,
    "source": "pure_moe"
  },
  {
    "start": 53.4756,
    "end": 54.1489,
    "pitch": 63,
    "string": 3,
    "fret": 8,
    "velocity": 0.986,
    "source": "pure_moe"
  },
  {
    "start": 53.6845,
    "end": 54.3811,
    "pitch": 72,
    "string": 1,
    "fret": 8,
    "velocity": 0.9971,
    "source": "pure_moe"
  },
  {
    "start": 53.9167,
    "end": 54.6133,
    "pitch": 66,
    "string": 2,
    "fret": 7,
    "velocity": 0.9937,
    "source": "pure_moe"
  },
  {
    "start": 54.1489,
    "end": 54.8223,
    "pitch": 63,
    "string": 3,
    "fret": 8,
    "velocity": 0.994,
    "source": "pure_moe"
  },
  {
    "start": 54.3811,
    "end": 54.6133,
    "pitch": 71,
    "string": 1,
    "fret": 7,
    "velocity": 0.9995,
    "source": "pure_moe"
  },
  {
    "start": 54.6133,
    "end": 55.2867,
    "pitch": 66,
    "string": 2,
    "fret": 7,
    "velocity": 0.9916,
    "source": "pure_moe"
  },
  {
    "start": 54.6133,
    "end": 55.0545,
    "pitch": 71,
    "string": 1,
    "fret": 7,
    "velocity": 0.9058,
    "source": "pure_moe"
  },
  {
    "start": 54.8223,
    "end": 55.5189,
    "pitch": 63,
    "string": 3,
    "fret": 8,
    "velocity": 0.9788,
    "source": "pure_moe"
  },
  {
    "start": 55.0545,
    "end": 56.5406,
    "pitch": 40,
    "string": 6,
    "fret": 0,
    "velocity": 0.9999,
    "source": "pure_moe"
  },
  {
    "start": 55.0545,
    "end": 55.7511,
    "pitch": 71,
    "string": 1,
    "fret": 7,
    "velocity": 0.9999,
    "source": "pure_moe"
  },
  {
    "start": 55.2867,
    "end": 55.9833,
    "pitch": 59,
    "string": 2,
    "fret": 0,
    "velocity": 0.9895,
    "source": "pure_moe"
  },
  {
    "start": 55.5189,
    "end": 56.1923,
    "pitch": 55,
    "string": 3,
    "fret": 0,
    "velocity": 0.9953,
    "source": "pure_moe"
  },
  {
    "start": 55.7511,
    "end": 56.4245,
    "pitch": 69,
    "string": 1,
    "fret": 5,
    "velocity": 0.999,
    "source": "pure_moe"
  },
  {
    "start": 55.9833,
    "end": 56.6567,
    "pitch": 59,
    "string": 2,
    "fret": 0,
    "velocity": 0.9919,
    "source": "pure_moe"
  },
  {
    "start": 56.1923,
    "end": 56.8889,
    "pitch": 55,
    "string": 3,
    "fret": 0,
    "velocity": 0.9962,
    "source": "pure_moe"
  },
  {
    "start": 56.4245,
    "end": 57.1211,
    "pitch": 67,
    "string": 1,
    "fret": 3,
    "velocity": 0.9947,
    "source": "pure_moe"
  },
  {
    "start": 56.6567,
    "end": 57.3301,
    "pitch": 59,
    "string": 2,
    "fret": 0,
    "velocity": 0.9961,
    "source": "pure_moe"
  },
  {
    "start": 56.8889,
    "end": 57.539,
    "pitch": 55,
    "string": 3,
    "fret": 0,
    "velocity": 0.9934,
    "source": "pure_moe"
  },
  {
    "start": 57.0979,
    "end": 58.5839,
    "pitch": 40,
    "string": 6,
    "fret": 0,
    "velocity": 0.9859,
    "source": "pure_moe"
  },
  {
    "start": 57.1211,
    "end": 57.4229,
    "pitch": 67,
    "string": 1,
    "fret": 3,
    "velocity": 0.9726,
    "source": "pure_moe"
  },
  {
    "start": 57.3301,
    "end": 58.0034,
    "pitch": 59,
    "string": 2,
    "fret": 0,
    "velocity": 0.9965,
    "source": "pure_moe"
  },
  {
    "start": 57.4229,
    "end": 57.7945,
    "pitch": 67,
    "string": 1,
    "fret": 3,
    "velocity": 0.8961,
    "source": "pure_moe"
  },
  {
    "start": 57.539,
    "end": 58.2356,
    "pitch": 55,
    "string": 3,
    "fret": 0,
    "velocity": 0.9854,
    "source": "pure_moe"
  },
  {
    "start": 57.7945,
    "end": 58.3517,
    "pitch": 66,
    "string": 1,
    "fret": 2,
    "velocity": 0.9991,
    "source": "pure_moe"
  },
  {
    "start": 58.0034,
    "end": 58.7,
    "pitch": 59,
    "string": 2,
    "fret": 0,
    "velocity": 0.9933,
    "source": "pure_moe"
  },
  {
    "start": 58.2356,
    "end": 58.9322,
    "pitch": 55,
    "string": 3,
    "fret": 0,
    "velocity": 0.9985,
    "source": "pure_moe"
  },
  {
    "start": 58.3517,
    "end": 58.4678,
    "pitch": 67,
    "string": 1,
    "fret": 3,
    "velocity": 0.9405,
    "source": "pure_moe"
  },
  {
    "start": 58.4678,
    "end": 59.1644,
    "pitch": 64,
    "string": 1,
    "fret": 0,
    "velocity": 0.9997,
    "source": "pure_moe"
  },
  {
    "start": 58.7,
    "end": 59.1644,
    "pitch": 59,
    "string": 2,
    "fret": 0,
    "velocity": 0.9982,
    "source": "pure_moe"
  },
  {
    "start": 58.9322,
    "end": 59.6056,
    "pitch": 55,
    "string": 3,
    "fret": 0,
    "velocity": 0.9979,
    "source": "pure_moe"
  },
  {
    "start": 59.1644,
    "end": 60.6505,
    "pitch": 47,
    "string": 5,
    "fret": 2,
    "velocity": 0.999,
    "source": "pure_moe"
  },
  {
    "start": 59.1644,
    "end": 59.3734,
    "pitch": 59,
    "string": 2,
    "fret": 0,
    "velocity": 0.9241,
    "source": "pure_moe"
  },
  {
    "start": 59.1644,
    "end": 59.3734,
    "pitch": 66,
    "string": 1,
    "fret": 2,
    "velocity": 0.9749,
    "source": "pure_moe"
  },
  {
    "start": 59.3734,
    "end": 60.07,
    "pitch": 59,
    "string": 2,
    "fret": 0,
    "velocity": 0.9816,
    "source": "pure_moe"
  },
  {
    "start": 59.3734,
    "end": 59.8378,
    "pitch": 66,
    "string": 1,
    "fret": 2,
    "velocity": 0.9806,
    "source": "pure_moe"
  },
  {
    "start": 59.6056,
    "end": 60.3022,
    "pitch": 55,
    "string": 3,
    "fret": 0,
    "velocity": 0.9984,
    "source": "pure_moe"
  },
  {
    "start": 59.8378,
    "end": 60.5112,
    "pitch": 66,
    "string": 1,
    "fret": 2,
    "velocity": 0.9994,
    "source": "pure_moe"
  },
  {
    "start": 60.07,
    "end": 60.7434,
    "pitch": 59,
    "string": 2,
    "fret": 0,
    "velocity": 0.994,
    "source": "pure_moe"
  },
  {
    "start": 60.3022,
    "end": 60.9756,
    "pitch": 55,
    "string": 3,
    "fret": 0,
    "velocity": 0.9979,
    "source": "pure_moe"
  },
  {
    "start": 60.5112,
    "end": 60.9756,
    "pitch": 66,
    "string": 1,
    "fret": 2,
    "velocity": 0.9995,
    "source": "pure_moe"
  },
  {
    "start": 60.7434,
    "end": 61.4168,
    "pitch": 59,
    "string": 2,
    "fret": 0,
    "velocity": 0.9964,
    "source": "pure_moe"
  },
  {
    "start": 60.9756,
    "end": 61.649,
    "pitch": 55,
    "string": 3,
    "fret": 0,
    "velocity": 0.9987,
    "source": "pure_moe"
  },
  {
    "start": 60.9756,
    "end": 61.1846,
    "pitch": 66,
    "string": 1,
    "fret": 2,
    "velocity": 0.9921,
    "source": "pure_moe"
  },
  {
    "start": 61.1846,
    "end": 62.6707,
    "pitch": 47,
    "string": 5,
    "fret": 2,
    "velocity": 0.9943,
    "source": "pure_moe"
  },
  {
    "start": 61.1846,
    "end": 61.8812,
    "pitch": 66,
    "string": 1,
    "fret": 2,
    "velocity": 0.9631,
    "source": "pure_moe"
  },
  {
    "start": 61.4168,
    "end": 62.1134,
    "pitch": 59,
    "string": 2,
    "fret": 0,
    "velocity": 0.9974,
    "source": "pure_moe"
  },
  {
    "start": 61.649,
    "end": 62.3224,
    "pitch": 57,
    "string": 3,
    "fret": 2,
    "velocity": 0.997,
    "source": "pure_moe"
  },
  {
    "start": 61.8812,
    "end": 62.5546,
    "pitch": 67,
    "string": 1,
    "fret": 3,
    "velocity": 0.9973,
    "source": "pure_moe"
  },
  {
    "start": 62.1134,
    "end": 62.7868,
    "pitch": 59,
    "string": 2,
    "fret": 0,
    "velocity": 0.9878,
    "source": "pure_moe"
  },
  {
    "start": 62.3224,
    "end": 63.019,
    "pitch": 57,
    "string": 3,
    "fret": 2,
    "velocity": 0.9993,
    "source": "pure_moe"
  },
  {
    "start": 62.5546,
    "end": 63.2512,
    "pitch": 66,
    "string": 1,
    "fret": 2,
    "velocity": 0.9982,
    "source": "pure_moe"
  },
  {
    "start": 62.7868,
    "end": 63.4834,
    "pitch": 59,
    "string": 2,
    "fret": 0,
    "velocity": 0.9954,
    "source": "pure_moe"
  },
  {
    "start": 63.019,
    "end": 63.2512,
    "pitch": 57,
    "string": 3,
    "fret": 2,
    "velocity": 0.9993,
    "source": "pure_moe"
  },
  {
    "start": 63.2512,
    "end": 64.7372,
    "pitch": 52,
    "string": 4,
    "fret": 2,
    "velocity": 0.9806,
    "source": "pure_moe"
  },
  {
    "start": 63.2512,
    "end": 63.6923,
    "pitch": 57,
    "string": 3,
    "fret": 2,
    "velocity": 0.9616,
    "source": "pure_moe"
  },
  {
    "start": 63.2512,
    "end": 63.9245,
    "pitch": 64,
    "string": 1,
    "fret": 0,
    "velocity": 0.9982,
    "source": "pure_moe"
  },
  {
    "start": 63.4834,
    "end": 64.1567,
    "pitch": 59,
    "string": 2,
    "fret": 0,
    "velocity": 0.9959,
    "source": "pure_moe"
  },
  {
    "start": 63.6923,
    "end": 64.3889,
    "pitch": 55,
    "string": 3,
    "fret": 0,
    "velocity": 0.9981,
    "source": "pure_moe"
  },
  {
    "start": 63.9245,
    "end": 65.2945,
    "pitch": 47,
    "string": 5,
    "fret": 2,
    "velocity": 0.9989,
    "source": "pure_moe"
  },
  {
    "start": 63.9245,
    "end": 64.5979,
    "pitch": 64,
    "string": 1,
    "fret": 0,
    "velocity": 0.997,
    "source": "pure_moe"
  },
  {
    "start": 64.1567,
    "end": 64.8301,
    "pitch": 59,
    "string": 2,
    "fret": 0,
    "velocity": 0.9943,
    "source": "pure_moe"
  },
  {
    "start": 64.3889,
    "end": 65.0623,
    "pitch": 55,
    "string": 3,
    "fret": 0,
    "velocity": 0.9985,
    "source": "pure_moe"
  },
  {
    "start": 64.5979,
    "end": 65.2945,
    "pitch": 43,
    "string": 6,
    "fret": 3,
    "velocity": 0.7835,
    "source": "pure_moe"
  },
  {
    "start": 64.5979,
    "end": 65.2945,
    "pitch": 64,
    "string": 1,
    "fret": 0,
    "velocity": 0.9813,
    "source": "pure_moe"
  },
  {
    "start": 64.8301,
    "end": 65.2945,
    "pitch": 59,
    "string": 2,
    "fret": 0,
    "velocity": 0.9896,
    "source": "pure_moe"
  },
  {
    "start": 65.0623,
    "end": 65.2945,
    "pitch": 55,
    "string": 3,
    "fret": 0,
    "velocity": 0.9942,
    "source": "pure_moe"
  },
  {
    "start": 65.2945,
    "end": 66.7806,
    "pitch": 40,
    "string": 6,
    "fret": 0,
    "velocity": 0.9993,
    "source": "pure_moe"
  },
  {
    "start": 65.2945,
    "end": 66.7806,
    "pitch": 47,
    "string": 5,
    "fret": 2,
    "velocity": 0.9942,
    "source": "pure_moe"
  },
  {
    "start": 65.2945,
    "end": 66.7806,
    "pitch": 55,
    "string": 3,
    "fret": 0,
    "velocity": 0.9991,
    "source": "pure_moe"
  },
  {
    "start": 65.2945,
    "end": 66.7806,
    "pitch": 59,
    "string": 2,
    "fret": 0,
    "velocity": 0.9996,
    "source": "pure_moe"
  },
  {
    "start": 65.2945,
    "end": 65.4338,
    "pitch": 64,
    "string": 1,
    "fret": 0,
    "velocity": 0.9992,
    "source": "pure_moe"
  },
  {
    "start": 65.4338,
    "end": 65.6893,
    "pitch": 64,
    "string": 1,
    "fret": 0,
    "velocity": 0.8596,
    "source": "pure_moe"
  },
  {
    "start": 65.6893,
    "end": 65.7821,
    "pitch": 64,
    "string": 1,
    "fret": 0,
    "velocity": 0.9228,
    "source": "pure_moe"
  },
  {
    "start": 65.7821,
    "end": 65.9447,
    "pitch": 64,
    "string": 1,
    "fret": 0,
    "velocity": 0.8707,
    "source": "pure_moe"
  },
  {
    "start": 65.9447,
    "end": 66.2698,
    "pitch": 64,
    "string": 1,
    "fret": 0,
    "velocity": 0.967,
    "source": "pure_moe"
  },
  {
    "start": 66.2698,
    "end": 66.3859,
    "pitch": 64,
    "string": 1,
    "fret": 0,
    "velocity": 0.8491,
    "source": "pure_moe"
  },
  {
    "start": 66.3859,
    "end": 66.502,
    "pitch": 64,
    "string": 1,
    "fret": 0,
    "velocity": 0.8643,
    "source": "pure_moe"
  },
  {
    "start": 66.502,
    "end": 66.6413,
    "pitch": 64,
    "string": 1,
    "fret": 0,
    "velocity": 0.8731,
    "source": "pure_moe"
  },
  {
    "start": 66.6413,
    "end": 66.7806,
    "pitch": 64,
    "string": 1,
    "fret": 0,
    "velocity": 0.9029,
    "source": "pure_moe"
  },
  {
    "start": 66.7806,
    "end": 66.9199,
    "pitch": 64,
    "string": 1,
    "fret": 0,
    "velocity": 0.9383,
    "source": "pure_moe"
  },
  {
    "start": 66.9199,
    "end": 67.3379,
    "pitch": 64,
    "string": 1,
    "fret": 0,
    "velocity": 0.7943,
    "source": "pure_moe"
  },
  {
    "start": 67.3379,
    "end": 68.8239,
    "pitch": 40,
    "string": 6,
    "fret": 0,
    "velocity": 0.9989,
    "source": "pure_moe"
  },
  {
    "start": 67.3379,
    "end": 68.0112,
    "pitch": 68,
    "string": 1,
    "fret": 4,
    "velocity": 0.9996,
    "source": "pure_moe"
  },
  {
    "start": 67.5701,
    "end": 68.2434,
    "pitch": 59,
    "string": 2,
    "fret": 0,
    "velocity": 0.9835,
    "source": "pure_moe"
  },
  {
    "start": 67.8023,
    "end": 68.4756,
    "pitch": 56,
    "string": 3,
    "fret": 1,
    "velocity": 0.9972,
    "source": "pure_moe"
  },
  {
    "start": 68.0112,
    "end": 68.3595,
    "pitch": 68,
    "string": 1,
    "fret": 4,
    "velocity": 0.9986,
    "source": "pure_moe"
  },
  {
    "start": 68.2434,
    "end": 68.3595,
    "pitch": 59,
    "string": 2,
    "fret": 0,
    "velocity": 0.9888,
    "source": "pure_moe"
  },
  {
    "start": 68.3595,
    "end": 68.94,
    "pitch": 59,
    "string": 2,
    "fret": 0,
    "velocity": 0.9112,
    "source": "pure_moe"
  },
  {
    "start": 68.3595,
    "end": 68.5685,
    "pitch": 68,
    "string": 1,
    "fret": 4,
    "velocity": 0.8876,
    "source": "pure_moe"
  },
  {
    "start": 68.4756,
    "end": 69.149,
    "pitch": 56,
    "string": 3,
    "fret": 1,
    "velocity": 0.9973,
    "source": "pure_moe"
  },
  {
    "start": 68.5685,
    "end": 68.7078,
    "pitch": 68,
    "string": 1,
    "fret": 4,
    "velocity": 0.863,
    "source": "pure_moe"
  },
  {
    "start": 68.7078,
    "end": 69.3812,
    "pitch": 68,
    "string": 1,
    "fret": 4,
    "velocity": 0.9997,
    "source": "pure_moe"
  },
  {
    "start": 68.94,
    "end": 69.5902,
    "pitch": 59,
    "string": 2,
    "fret": 0,
    "velocity": 0.9939,
    "source": "pure_moe"
  },
  {
    "start": 69.149,
    "end": 69.8224,
    "pitch": 56,
    "string": 3,
    "fret": 1,
    "velocity": 0.9966,
    "source": "pure_moe"
  },
  {
    "start": 69.3812,
    "end": 70.8673,
    "pitch": 40,
    "string": 6,
    "fret": 0,
    "velocity": 0.9981,
    "source": "pure_moe"
  },
  {
    "start": 69.3812,
    "end": 70.0546,
    "pitch": 68,
    "string": 1,
    "fret": 4,
    "velocity": 0.9998,
    "source": "pure_moe"
  },
  {
    "start": 69.5902,
    "end": 70.2868,
    "pitch": 59,
    "string": 2,
    "fret": 0,
    "velocity": 0.9867,
    "source": "pure_moe"
  },
  {
    "start": 69.8224,
    "end": 70.519,
    "pitch": 56,
    "string": 3,
    "fret": 1,
    "velocity": 0.9957,
    "source": "pure_moe"
  },
  {
    "start": 70.0546,
    "end": 70.7512,
    "pitch": 66,
    "string": 1,
    "fret": 2,
    "velocity": 0.9995,
    "source": "pure_moe"
  },
  {
    "start": 70.2868,
    "end": 70.9602,
    "pitch": 59,
    "string": 2,
    "fret": 0,
    "velocity": 0.9977,
    "source": "pure_moe"
  },
  {
    "start": 70.519,
    "end": 71.1924,
    "pitch": 56,
    "string": 3,
    "fret": 1,
    "velocity": 0.9984,
    "source": "pure_moe"
  },
  {
    "start": 70.7512,
    "end": 71.4246,
    "pitch": 64,
    "string": 1,
    "fret": 0,
    "velocity": 0.9995,
    "source": "pure_moe"
  },
  {
    "start": 70.9602,
    "end": 71.4246,
    "pitch": 59,
    "string": 2,
    "fret": 0,
    "velocity": 0.999,
    "source": "pure_moe"
  },
  {
    "start": 71.1924,
    "end": 71.4246,
    "pitch": 56,
    "string": 3,
    "fret": 1,
    "velocity": 0.9958,
    "source": "pure_moe"
  },
  {
    "start": 71.4246,
    "end": 72.9107,
    "pitch": 40,
    "string": 6,
    "fret": 0,
    "velocity": 0.992,
    "source": "pure_moe"
  },
  {
    "start": 71.4246,
    "end": 72.9107,
    "pitch": 49,
    "string": 5,
    "fret": 4,
    "velocity": 0.9819,
    "source": "pure_moe"
  },
  {
    "start": 71.4246,
    "end": 71.6336,
    "pitch": 56,
    "string": 3,
    "fret": 1,
    "velocity": 0.9365,
    "source": "pure_moe"
  },
  {
    "start": 71.4246,
    "end": 72.098,
    "pitch": 64,
    "string": 2,
    "fret": 5,
    "velocity": 0.9921,
    "source": "pure_moe"
  },
  {
    "start": 71.4246,
    "end": 71.8658,
    "pitch": 64,
    "string": 1,
    "fret": 0,
    "velocity": 0.9957,
    "source": "pure_moe"
  },
  {
    "start": 71.6336,
    "end": 72.3302,
    "pitch": 57,
    "string": 3,
    "fret": 2,
    "velocity": 0.9964,
    "source": "pure_moe"
  },
  {
    "start": 71.8658,
    "end": 72.5624,
    "pitch": 54,
    "string": 4,
    "fret": 4,
    "velocity": 0.9843,
    "source": "pure_moe"
  },
  {
    "start": 71.8658,
    "end": 73.3518,
    "pitch": 64,
    "string": 1,
    "fret": 0,
    "velocity": 0.9634,
    "source": "pure_moe"
  },
  {
    "start": 72.098,
    "end": 72.7946,
    "pitch": 63,
    "string": 2,
    "fret": 4,
    "velocity": 0.9967,
    "source": "pure_moe"
  },
  {
    "start": 72.3302,
    "end": 73.0035,
    "pitch": 57,
    "string": 3,
    "fret": 2,
    "velocity": 0.9961,
    "source": "pure_moe"
  },
  {
    "start": 72.5624,
    "end": 73.2357,
    "pitch": 54,
    "string": 4,
    "fret": 4,
    "velocity": 0.9956,
    "source": "pure_moe"
  },
  {
    "start": 72.7946,
    "end": 73.4679,
    "pitch": 63,
    "string": 2,
    "fret": 4,
    "velocity": 0.9966,
    "source": "pure_moe"
  },
  {
    "start": 73.0035,
    "end": 73.7001,
    "pitch": 57,
    "string": 3,
    "fret": 2,
    "velocity": 0.9978,
    "source": "pure_moe"
  },
  {
    "start": 73.2357,
    "end": 73.4679,
    "pitch": 54,
    "string": 4,
    "fret": 4,
    "velocity": 0.9973,
    "source": "pure_moe"
  },
  {
    "start": 73.4679,
    "end": 74.954,
    "pitch": 42,
    "string": 6,
    "fret": 2,
    "velocity": 0.9815,
    "source": "pure_moe"
  },
  {
    "start": 73.4679,
    "end": 73.9323,
    "pitch": 54,
    "string": 4,
    "fret": 4,
    "velocity": 0.9526,
    "source": "pure_moe"
  },
  {
    "start": 73.4679,
    "end": 74.1645,
    "pitch": 63,
    "string": 2,
    "fret": 4,
    "velocity": 0.9997,
    "source": "pure_moe"
  },
  {
    "start": 73.4679,
    "end": 73.9323,
    "pitch": 69,
    "string": 1,
    "fret": 5,
    "velocity": 0.9709,
    "source": "pure_moe"
  },
  {
    "start": 73.7001,
    "end": 74.3735,
    "pitch": 57,
    "string": 3,
    "fret": 2,
    "velocity": 0.9969,
    "source": "pure_moe"
  },
  {
    "start": 73.9323,
    "end": 74.6057,
    "pitch": 54,
    "string": 4,
    "fret": 4,
    "velocity": 0.995,
    "source": "pure_moe"
  },
  {
    "start": 73.9323,
    "end": 74.6057,
    "pitch": 66,
    "string": 1,
    "fret": 2,
    "velocity": 0.9248,
    "source": "pure_moe"
  },
  {
    "start": 74.1645,
    "end": 74.8379,
    "pitch": 62,
    "string": 2,
    "fret": 3,
    "velocity": 0.9975,
    "source": "pure_moe"
  },
  {
    "start": 74.3735,
    "end": 75.0701,
    "pitch": 57,
    "string": 3,
    "fret": 2,
    "velocity": 0.9983,
    "source": "pure_moe"
  },
  {
    "start": 74.6057,
    "end": 75.3023,
    "pitch": 54,
    "string": 4,
    "fret": 4,
    "velocity": 0.9934,
    "source": "pure_moe"
  },
  {
    "start": 74.6057,
    "end": 75.3023,
    "pitch": 66,
    "string": 1,
    "fret": 2,
    "velocity": 0.919,
    "source": "pure_moe"
  },
  {
    "start": 74.8379,
    "end": 75.7435,
    "pitch": 63,
    "string": 2,
    "fret": 4,
    "velocity": 0.9975,
    "source": "pure_moe"
  },
  {
    "start": 75.0701,
    "end": 76.5562,
    "pitch": 57,
    "string": 3,
    "fret": 2,
    "velocity": 0.9928,
    "source": "pure_moe"
  },
  {
    "start": 75.3023,
    "end": 76.7884,
    "pitch": 54,
    "string": 4,
    "fret": 4,
    "velocity": 0.9921,
    "source": "pure_moe"
  },
  {
    "start": 75.3023,
    "end": 75.5113,
    "pitch": 69,
    "string": 1,
    "fret": 5,
    "velocity": 0.9167,
    "source": "pure_moe"
  },
  {
    "start": 75.5113,
    "end": 76.9974,
    "pitch": 47,
    "string": 5,
    "fret": 2,
    "velocity": 0.9804,
    "source": "pure_moe"
  },
  {
    "start": 75.5113,
    "end": 75.7435,
    "pitch": 69,
    "string": 1,
    "fret": 5,
    "velocity": 0.9974,
    "source": "pure_moe"
  },
  {
    "start": 75.7435,
    "end": 75.9757,
    "pitch": 63,
    "string": 2,
    "fret": 4,
    "velocity": 0.9496,
    "source": "pure_moe"
  },
  {
    "start": 75.7435,
    "end": 76.2079,
    "pitch": 69,
    "string": 1,
    "fret": 5,
    "velocity": 0.9957,
    "source": "pure_moe"
  },
  {
    "start": 75.9757,
    "end": 76.4401,
    "pitch": 63,
    "string": 2,
    "fret": 4,
    "velocity": 0.9972,
    "source": "pure_moe"
  },
  {
    "start": 76.2079,
    "end": 76.4401,
    "pitch": 73,
    "string": 1,
    "fret": 9,
    "velocity": 0.9989,
    "source": "pure_moe"
  },
  {
    "start": 76.4401,
    "end": 76.6491,
    "pitch": 63,
    "string": 2,
    "fret": 4,
    "velocity": 0.994,
    "source": "pure_moe"
  },
  {
    "start": 76.4401,
    "end": 76.9045,
    "pitch": 73,
    "string": 1,
    "fret": 9,
    "velocity": 0.9584,
    "source": "pure_moe"
  },
  {
    "start": 76.6491,
    "end": 77.3224,
    "pitch": 63,
    "string": 3,
    "fret": 8,
    "velocity": 0.9367,
    "source": "pure_moe"
  },
  {
    "start": 76.6491,
    "end": 77.1135,
    "pitch": 63,
    "string": 2,
    "fret": 4,
    "velocity": 0.9822,
    "source": "pure_moe"
  },
  {
    "start": 76.9045,
    "end": 77.1135,
    "pitch": 73,
    "string": 1,
    "fret": 9,
    "velocity": 0.9967,
    "source": "pure_moe"
  },
  {
    "start": 77.1135,
    "end": 77.3224,
    "pitch": 63,
    "string": 2,
    "fret": 4,
    "velocity": 0.9958,
    "source": "pure_moe"
  },
  {
    "start": 77.1135,
    "end": 77.5546,
    "pitch": 73,
    "string": 1,
    "fret": 9,
    "velocity": 0.9297,
    "source": "pure_moe"
  },
  {
    "start": 77.3224,
    "end": 78.019,
    "pitch": 63,
    "string": 3,
    "fret": 8,
    "velocity": 0.947,
    "source": "pure_moe"
  },
  {
    "start": 77.3224,
    "end": 77.8101,
    "pitch": 63,
    "string": 2,
    "fret": 4,
    "velocity": 0.8745,
    "source": "pure_moe"
  },
  {
    "start": 77.5546,
    "end": 79.0407,
    "pitch": 47,
    "string": 6,
    "fret": 7,
    "velocity": 0.995,
    "source": "pure_moe"
  },
  {
    "start": 77.5546,
    "end": 77.8101,
    "pitch": 73,
    "string": 1,
    "fret": 9,
    "velocity": 0.9986,
    "source": "pure_moe"
  },
  {
    "start": 77.8101,
    "end": 78.4834,
    "pitch": 66,
    "string": 2,
    "fret": 7,
    "velocity": 0.9611,
    "source": "pure_moe"
  },
  {
    "start": 77.8101,
    "end": 78.2512,
    "pitch": 73,
    "string": 1,
    "fret": 9,
    "velocity": 0.9215,
    "source": "pure_moe"
  },
  {
    "start": 78.019,
    "end": 78.6924,
    "pitch": 63,
    "string": 3,
    "fret": 8,
    "velocity": 0.991,
    "source": "pure_moe"
  },
  {
    "start": 78.2512,
    "end": 78.9246,
    "pitch": 75,
    "string": 1,
    "fret": 11,
    "velocity": 0.9979,
    "source": "pure_moe"
  },
  {
    "start": 78.4834,
    "end": 79.1568,
    "pitch": 66,
    "string": 2,
    "fret": 7,
    "velocity": 0.9958,
    "source": "pure_moe"
  },
  {
    "start": 78.6924,
    "end": 79.389,
    "pitch": 63,
    "string": 3,
    "fret": 8,
    "velocity": 0.9893,
    "source": "pure_moe"
  },
  {
    "start": 78.9246,
    "end": 79.1568,
    "pitch": 73,
    "string": 1,
    "fret": 9,
    "velocity": 0.9989,
    "source": "pure_moe"
  },
  {
    "start": 79.1568,
    "end": 79.6212,
    "pitch": 66,
    "string": 2,
    "fret": 7,
    "velocity": 0.9958,
    "source": "pure_moe"
  },
  {
    "start": 79.1568,
    "end": 79.6212,
    "pitch": 73,
    "string": 1,
    "fret": 9,
    "velocity": 0.9189,
    "source": "pure_moe"
  },
  {
    "start": 79.389,
    "end": 79.6212,
    "pitch": 63,
    "string": 3,
    "fret": 8,
    "velocity": 0.9874,
    "source": "pure_moe"
  },
  {
    "start": 79.6212,
    "end": 81.1073,
    "pitch": 40,
    "string": 6,
    "fret": 0,
    "velocity": 0.9993,
    "source": "pure_moe"
  },
  {
    "start": 79.6212,
    "end": 81.1073,
    "pitch": 63,
    "string": 3,
    "fret": 8,
    "velocity": 0.9039,
    "source": "pure_moe"
  },
  {
    "start": 79.6212,
    "end": 79.8534,
    "pitch": 66,
    "string": 2,
    "fret": 7,
    "velocity": 0.9797,
    "source": "pure_moe"
  },
  {
    "start": 79.6212,
    "end": 79.8534,
    "pitch": 73,
    "string": 1,
    "fret": 9,
    "velocity": 0.9997,
    "source": "pure_moe"
  },
  {
    "start": 79.8534,
    "end": 80.0624,
    "pitch": 68,
    "string": 2,
    "fret": 9,
    "velocity": 0.9425,
    "source": "pure_moe"
  },
  {
    "start": 79.8534,
    "end": 80.0624,
    "pitch": 73,
    "string": 1,
    "fret": 9,
    "velocity": 0.9908,
    "source": "pure_moe"
  },
  {
    "start": 80.0624,
    "end": 80.5268,
    "pitch": 68,
    "string": 2,
    "fret": 9,
    "velocity": 0.8593,
    "source": "pure_moe"
  },
  {
    "start": 80.0624,
    "end": 80.2946,
    "pitch": 76,
    "string": 1,
    "fret": 12,
    "velocity": 0.9922,
    "source": "pure_moe"
  },
  {
    "start": 80.2946,
    "end": 80.5268,
    "pitch": 71,
    "string": 1,
    "fret": 7,
    "velocity": 0.9993,
    "source": "pure_moe"
  },
  {
    "start": 80.5268,
    "end": 80.759,
    "pitch": 68,
    "string": 2,
    "fret": 9,
    "velocity": 0.9059,
    "source": "pure_moe"
  },
  {
    "start": 80.5268,
    "end": 80.6429,
    "pitch": 71,
    "string": 1,
    "fret": 7,
    "velocity": 0.9845,
    "source": "pure_moe"
  },
  {
    "start": 80.6429,
    "end": 80.759,
    "pitch": 71,
    "string": 1,
    "fret": 7,
    "velocity": 0.8214,
    "source": "pure_moe"
  },
  {
    "start": 80.759,
    "end": 81.2002,
    "pitch": 68,
    "string": 2,
    "fret": 9,
    "velocity": 0.9412,
    "source": "pure_moe"
  },
  {
    "start": 80.759,
    "end": 80.8983,
    "pitch": 76,
    "string": 1,
    "fret": 12,
    "velocity": 0.9925,
    "source": "pure_moe"
  },
  {
    "start": 80.8983,
    "end": 80.9912,
    "pitch": 76,
    "string": 1,
    "fret": 12,
    "velocity": 0.9188,
    "source": "pure_moe"
  },
  {
    "start": 80.9912,
    "end": 81.2002,
    "pitch": 71,
    "string": 1,
    "fret": 7,
    "velocity": 0.9977,
    "source": "pure_moe"
  },
  {
    "start": 81.2002,
    "end": 81.6646,
    "pitch": 68,
    "string": 2,
    "fret": 9,
    "velocity": 0.8976,
    "source": "pure_moe"
  },
  {
    "start": 81.2002,
    "end": 81.3395,
    "pitch": 71,
    "string": 1,
    "fret": 7,
    "velocity": 0.991,
    "source": "pure_moe"
  },
  {
    "start": 81.3395,
    "end": 81.4324,
    "pitch": 76,
    "string": 1,
    "fret": 12,
    "velocity": 0.9867,
    "source": "pure_moe"
  },
  {
    "start": 81.4324,
    "end": 81.6646,
    "pitch": 76,
    "string": 1,
    "fret": 12,
    "velocity": 0.9927,
    "source": "pure_moe"
  },
  {
    "start": 81.6646,
    "end": 83.1507,
    "pitch": 40,
    "string": 6,
    "fret": 0,
    "velocity": 0.997,
    "source": "pure_moe"
  },
  {
    "start": 81.6646,
    "end": 82.5702,
    "pitch": 68,
    "string": 2,
    "fret": 9,
    "velocity": 0.9693,
    "source": "pure_moe"
  },
  {
    "start": 81.6646,
    "end": 81.8968,
    "pitch": 71,
    "string": 1,
    "fret": 7,
    "velocity": 0.9997,
    "source": "pure_moe"
  },
  {
    "start": 81.8968,
    "end": 82.129,
    "pitch": 71,
    "string": 1,
    "fret": 7,
    "velocity": 0.9691,
    "source": "pure_moe"
  },
  {
    "start": 82.129,
    "end": 82.338,
    "pitch": 71,
    "string": 1,
    "fret": 7,
    "velocity": 0.7774,
    "source": "pure_moe"
  },
  {
    "start": 82.338,
    "end": 82.4541,
    "pitch": 73,
    "string": 1,
    "fret": 9,
    "velocity": 0.999,
    "source": "pure_moe"
  },
  {
    "start": 82.4541,
    "end": 82.5702,
    "pitch": 73,
    "string": 1,
    "fret": 9,
    "velocity": 0.9308,
    "source": "pure_moe"
  },
  {
    "start": 82.5702,
    "end": 83.2435,
    "pitch": 68,
    "string": 2,
    "fret": 9,
    "velocity": 0.985,
    "source": "pure_moe"
  },
  {
    "start": 82.5702,
    "end": 82.8024,
    "pitch": 73,
    "string": 1,
    "fret": 9,
    "velocity": 0.8709,
    "source": "pure_moe"
  },
  {
    "start": 82.8024,
    "end": 83.4757,
    "pitch": 64,
    "string": 3,
    "fret": 9,
    "velocity": 0.9149,
    "source": "pure_moe"
  },
  {
    "start": 82.8024,
    "end": 83.0346,
    "pitch": 73,
    "string": 1,
    "fret": 9,
    "velocity": 0.9719,
    "source": "pure_moe"
  },
  {
    "start": 83.0346,
    "end": 83.1274,
    "pitch": 75,
    "string": 1,
    "fret": 11,
    "velocity": 0.9993,
    "source": "pure_moe"
  },
  {
    "start": 83.1274,
    "end": 83.2435,
    "pitch": 75,
    "string": 1,
    "fret": 11,
    "velocity": 0.9894,
    "source": "pure_moe"
  },
  {
    "start": 83.2435,
    "end": 83.4757,
    "pitch": 68,
    "string": 2,
    "fret": 9,
    "velocity": 0.967,
    "source": "pure_moe"
  },
  {
    "start": 83.2435,
    "end": 83.4757,
    "pitch": 75,
    "string": 1,
    "fret": 11,
    "velocity": 0.9647,
    "source": "pure_moe"
  },
  {
    "start": 83.4757,
    "end": 84.1491,
    "pitch": 64,
    "string": 3,
    "fret": 9,
    "velocity": 0.9219,
    "source": "pure_moe"
  },
  {
    "start": 83.4757,
    "end": 83.9401,
    "pitch": 68,
    "string": 2,
    "fret": 9,
    "velocity": 0.8793,
    "source": "pure_moe"
  },
  {
    "start": 83.4757,
    "end": 83.7079,
    "pitch": 76,
    "string": 1,
    "fret": 12,
    "velocity": 0.9275,
    "source": "pure_moe"
  },
  {
    "start": 83.7079,
    "end": 85.194,
    "pitch": 40,
    "string": 6,
    "fret": 0,
    "velocity": 0.9959,
    "source": "pure_moe"
  },
  {
    "start": 83.7079,
    "end": 83.8705,
    "pitch": 76,
    "string": 1,
    "fret": 12,
    "velocity": 0.9999,
    "source": "pure_moe"
  },
  {
    "start": 83.8705,
    "end": 83.9401,
    "pitch": 76,
    "string": 1,
    "fret": 12,
    "velocity": 0.9298,
    "source": "pure_moe"
  },
  {
    "start": 83.9401,
    "end": 84.6135,
    "pitch": 68,
    "string": 2,
    "fret": 9,
    "velocity": 0.9797,
    "source": "pure_moe"
  },
  {
    "start": 83.9401,
    "end": 84.1491,
    "pitch": 76,
    "string": 1,
    "fret": 12,
    "velocity": 0.8576,
    "source": "pure_moe"
  },
  {
    "start": 84.1491,
    "end": 84.8457,
    "pitch": 64,
    "string": 3,
    "fret": 9,
    "velocity": 0.9105,
    "source": "pure_moe"
  },
  {
    "start": 84.1491,
    "end": 84.3813,
    "pitch": 76,
    "string": 1,
    "fret": 12,
    "velocity": 0.9396,
    "source": "pure_moe"
  },
  {
    "start": 84.3813,
    "end": 84.4974,
    "pitch": 76,
    "string": 1,
    "fret": 12,
    "velocity": 0.9964,
    "source": "pure_moe"
  },
  {
    "start": 84.4974,
    "end": 84.8457,
    "pitch": 76,
    "string": 1,
    "fret": 12,
    "velocity": 0.9894,
    "source": "pure_moe"
  },
  {
    "start": 84.6135,
    "end": 85.2869,
    "pitch": 68,
    "string": 2,
    "fret": 9,
    "velocity": 0.9665,
    "source": "pure_moe"
  },
  {
    "start": 84.8457,
    "end": 85.5191,
    "pitch": 64,
    "string": 3,
    "fret": 9,
    "velocity": 0.9655,
    "source": "pure_moe"
  },
  {
    "start": 84.8457,
    "end": 85.0779,
    "pitch": 76,
    "string": 1,
    "fret": 12,
    "velocity": 0.8617,
    "source": "pure_moe"
  },
  {
    "start": 85.0779,
    "end": 85.1708,
    "pitch": 76,
    "string": 1,
    "fret": 12,
    "velocity": 0.9964,
    "source": "pure_moe"
  },
  {
    "start": 85.1708,
    "end": 85.2869,
    "pitch": 76,
    "string": 1,
    "fret": 12,
    "velocity": 0.9831,
    "source": "pure_moe"
  },
  {
    "start": 85.2869,
    "end": 85.9835,
    "pitch": 68,
    "string": 2,
    "fret": 9,
    "velocity": 0.9614,
    "source": "pure_moe"
  },
  {
    "start": 85.2869,
    "end": 85.5191,
    "pitch": 76,
    "string": 1,
    "fret": 12,
    "velocity": 0.9298,
    "source": "pure_moe"
  },
  {
    "start": 85.5191,
    "end": 85.7513,
    "pitch": 64,
    "string": 3,
    "fret": 9,
    "velocity": 0.9664,
    "source": "pure_moe"
  },
  {
    "start": 85.5191,
    "end": 85.7513,
    "pitch": 76,
    "string": 1,
    "fret": 12,
    "velocity": 0.9515,
    "source": "pure_moe"
  },
  {
    "start": 85.7513,
    "end": 87.2374,
    "pitch": 40,
    "string": 6,
    "fret": 0,
    "velocity": 0.9973,
    "source": "pure_moe"
  },
  {
    "start": 85.7513,
    "end": 86.1925,
    "pitch": 64,
    "string": 3,
    "fret": 9,
    "velocity": 0.9321,
    "source": "pure_moe"
  },
  {
    "start": 85.7513,
    "end": 86.1925,
    "pitch": 76,
    "string": 1,
    "fret": 12,
    "velocity": 0.9999,
    "source": "pure_moe"
  },
  {
    "start": 85.9835,
    "end": 86.6569,
    "pitch": 68,
    "string": 2,
    "fret": 9,
    "velocity": 0.9779,
    "source": "pure_moe"
  },
  {
    "start": 86.1925,
    "end": 86.8891,
    "pitch": 64,
    "string": 3,
    "fret": 9,
    "velocity": 0.8679,
    "source": "pure_moe"
  },
  {
    "start": 86.1925,
    "end": 86.4247,
    "pitch": 76,
    "string": 1,
    "fret": 12,
    "velocity": 0.9358,
    "source": "pure_moe"
  },
  {
    "start": 86.4247,
    "end": 86.5176,
    "pitch": 75,
    "string": 1,
    "fret": 11,
    "velocity": 0.9981,
    "source": "pure_moe"
  },
  {
    "start": 86.5176,
    "end": 86.6569,
    "pitch": 75,
    "string": 1,
    "fret": 11,
    "velocity": 0.9727,
    "source": "pure_moe"
  },
  {
    "start": 86.6569,
    "end": 87.3535,
    "pitch": 68,
    "string": 2,
    "fret": 9,
    "velocity": 0.9773,
    "source": "pure_moe"
  },
  {
    "start": 86.6569,
    "end": 86.8891,
    "pitch": 75,
    "string": 1,
    "fret": 11,
    "velocity": 0.9641,
    "source": "pure_moe"
  },
  {
    "start": 86.8891,
    "end": 87.5624,
    "pitch": 64,
    "string": 3,
    "fret": 9,
    "velocity": 0.9598,
    "source": "pure_moe"
  },
  {
    "start": 86.8891,
    "end": 87.1213,
    "pitch": 76,
    "string": 1,
    "fret": 12,
    "velocity": 0.9819,
    "source": "pure_moe"
  },
  {
    "start": 87.1213,
    "end": 87.2374,
    "pitch": 74,
    "string": 1,
    "fret": 10,
    "velocity": 0.9969,
    "source": "pure_moe"
  },
  {
    "start": 87.2374,
    "end": 87.3535,
    "pitch": 74,
    "string": 1,
    "fret": 10,
    "velocity": 0.8967,
    "source": "pure_moe"
  },
  {
    "start": 87.3535,
    "end": 88.0268,
    "pitch": 68,
    "string": 2,
    "fret": 9,
    "velocity": 0.9787,
    "source": "pure_moe"
  },
  {
    "start": 87.3535,
    "end": 87.5624,
    "pitch": 74,
    "string": 1,
    "fret": 10,
    "velocity": 0.9605,
    "source": "pure_moe"
  },
  {
    "start": 87.5624,
    "end": 88.0268,
    "pitch": 64,
    "string": 3,
    "fret": 9,
    "velocity": 0.96,
    "source": "pure_moe"
  },
  {
    "start": 87.5624,
    "end": 87.7946,
    "pitch": 74,
    "string": 1,
    "fret": 10,
    "velocity": 0.9695,
    "source": "pure_moe"
  },
  {
    "start": 87.7946,
    "end": 89.2807,
    "pitch": 45,
    "string": 5,
    "fret": 0,
    "velocity": 0.9885,
    "source": "pure_moe"
  },
  {
    "start": 87.7946,
    "end": 88.0268,
    "pitch": 73,
    "string": 1,
    "fret": 9,
    "velocity": 0.997,
    "source": "pure_moe"
  },
  {
    "start": 88.0268,
    "end": 88.2358,
    "pitch": 64,
    "string": 3,
    "fret": 9,
    "velocity": 0.9865,
    "source": "pure_moe"
  },
  {
    "start": 88.0268,
    "end": 89.3736,
    "pitch": 69,
    "string": 2,
    "fret": 10,
    "velocity": 0.9692,
    "source": "pure_moe"
  },
  {
    "start": 88.0268,
    "end": 88.4912,
    "pitch": 73,
    "string": 1,
    "fret": 9,
    "velocity": 0.9939,
    "source": "pure_moe"
  },
  {
    "start": 88.2358,
    "end": 88.7002,
    "pitch": 61,
    "string": 3,
    "fret": 6,
    "velocity": 0.9939,
    "source": "pure_moe"
  },
  {
    "start": 88.4912,
    "end": 88.7002,
    "pitch": 73,
    "string": 1,
    "fret": 9,
    "velocity": 0.9977,
    "source": "pure_moe"
  },
  {
    "start": 88.7002,
    "end": 88.9324,
    "pitch": 64,
    "string": 3,
    "fret": 9,
    "velocity": 0.8647,
    "source": "pure_moe"
  },
  {
    "start": 88.7002,
    "end": 89.1646,
    "pitch": 73,
    "string": 1,
    "fret": 9,
    "velocity": 0.9848,
    "source": "pure_moe"
  },
  {
    "start": 88.9324,
    "end": 89.3736,
    "pitch": 61,
    "string": 3,
    "fret": 6,
    "velocity": 0.9895,
    "source": "pure_moe"
  },
  {
    "start": 89.1646,
    "end": 89.3736,
    "pitch": 73,
    "string": 1,
    "fret": 9,
    "velocity": 0.9986,
    "source": "pure_moe"
  },
  {
    "start": 89.3736,
    "end": 89.6058,
    "pitch": 64,
    "string": 3,
    "fret": 9,
    "velocity": 0.9836,
    "source": "pure_moe"
  },
  {
    "start": 89.3736,
    "end": 90.0702,
    "pitch": 64,
    "string": 2,
    "fret": 5,
    "velocity": 0.9698,
    "source": "pure_moe"
  },
  {
    "start": 89.3736,
    "end": 89.838,
    "pitch": 73,
    "string": 1,
    "fret": 9,
    "velocity": 0.9965,
    "source": "pure_moe"
  },
  {
    "start": 89.6058,
    "end": 90.0702,
    "pitch": 61,
    "string": 3,
    "fret": 6,
    "velocity": 0.9939,
    "source": "pure_moe"
  },
  {
    "start": 89.838,
    "end": 91.3241,
    "pitch": 45,
    "string": 5,
    "fret": 0,
    "velocity": 0.9984,
    "source": "pure_moe"
  },
  {
    "start": 89.838,
    "end": 90.0702,
    "pitch": 73,
    "string": 1,
    "fret": 9,
    "velocity": 0.9988,
    "source": "pure_moe"
  },
  {
    "start": 90.0702,
    "end": 90.3024,
    "pitch": 64,
    "string": 3,
    "fret": 9,
    "velocity": 0.9878,
    "source": "pure_moe"
  },
  {
    "start": 90.0702,
    "end": 90.7436,
    "pitch": 64,
    "string": 2,
    "fret": 5,
    "velocity": 0.9672,
    "source": "pure_moe"
  },
  {
    "start": 90.0702,
    "end": 90.5114,
    "pitch": 73,
    "string": 1,
    "fret": 9,
    "velocity": 0.9862,
    "source": "pure_moe"
  },
  {
    "start": 90.3024,
    "end": 90.9758,
    "pitch": 61,
    "string": 3,
    "fret": 6,
    "velocity": 0.9889,
    "source": "pure_moe"
  },
  {
    "start": 90.5114,
    "end": 90.7436,
    "pitch": 71,
    "string": 1,
    "fret": 7,
    "velocity": 0.9983,
    "source": "pure_moe"
  },
  {
    "start": 90.7436,
    "end": 91.4402,
    "pitch": 64,
    "string": 2,
    "fret": 5,
    "velocity": 0.9809,
    "source": "pure_moe"
  },
  {
    "start": 90.7436,
    "end": 91.208,
    "pitch": 71,
    "string": 1,
    "fret": 7,
    "velocity": 0.9927,
    "source": "pure_moe"
  },
  {
    "start": 90.9758,
    "end": 91.6492,
    "pitch": 61,
    "string": 3,
    "fret": 6,
    "velocity": 0.998,
    "source": "pure_moe"
  },
  {
    "start": 91.208,
    "end": 91.4402,
    "pitch": 69,
    "string": 1,
    "fret": 5,
    "velocity": 0.9972,
    "source": "pure_moe"
  },
  {
    "start": 91.4402,
    "end": 92.1136,
    "pitch": 64,
    "string": 2,
    "fret": 5,
    "velocity": 0.9879,
    "source": "pure_moe"
  },
  {
    "start": 91.4402,
    "end": 91.9046,
    "pitch": 69,
    "string": 1,
    "fret": 5,
    "velocity": 0.9903,
    "source": "pure_moe"
  },
  {
    "start": 91.6492,
    "end": 92.1136,
    "pitch": 61,
    "string": 3,
    "fret": 6,
    "velocity": 0.9982,
    "source": "pure_moe"
  },
  {
    "start": 91.9046,
    "end": 93.3907,
    "pitch": 40,
    "string": 6,
    "fret": 0,
    "velocity": 0.9994,
    "source": "pure_moe"
  },
  {
    "start": 91.9046,
    "end": 92.578,
    "pitch": 68,
    "string": 1,
    "fret": 4,
    "velocity": 0.9998,
    "source": "pure_moe"
  },
  {
    "start": 92.1136,
    "end": 92.3458,
    "pitch": 59,
    "string": 3,
    "fret": 4,
    "velocity": 0.941,
    "source": "pure_moe"
  },
  {
    "start": 92.1136,
    "end": 92.8102,
    "pitch": 59,
    "string": 2,
    "fret": 0,
    "velocity": 0.9831,
    "source": "pure_moe"
  },
  {
    "start": 92.3458,
    "end": 93.0191,
    "pitch": 56,
    "string": 3,
    "fret": 1,
    "velocity": 0.9897,
    "source": "pure_moe"
  },
  {
    "start": 92.578,
    "end": 93.2513,
    "pitch": 68,
    "string": 1,
    "fret": 4,
    "velocity": 0.9996,
    "source": "pure_moe"
  },
  {
    "start": 92.8102,
    "end": 93.4835,
    "pitch": 59,
    "string": 2,
    "fret": 0,
    "velocity": 0.9717,
    "source": "pure_moe"
  },
  {
    "start": 93.0191,
    "end": 93.6925,
    "pitch": 56,
    "string": 3,
    "fret": 1,
    "velocity": 0.9982,
    "source": "pure_moe"
  },
  {
    "start": 93.2513,
    "end": 93.3674,
    "pitch": 68,
    "string": 1,
    "fret": 4,
    "velocity": 0.9993,
    "source": "pure_moe"
  },
  {
    "start": 93.3674,
    "end": 93.9247,
    "pitch": 68,
    "string": 1,
    "fret": 4,
    "velocity": 0.9706,
    "source": "pure_moe"
  },
  {
    "start": 93.4835,
    "end": 94.1569,
    "pitch": 59,
    "string": 2,
    "fret": 0,
    "velocity": 0.9939,
    "source": "pure_moe"
  },
  {
    "start": 93.6925,
    "end": 94.3891,
    "pitch": 56,
    "string": 3,
    "fret": 1,
    "velocity": 0.9978,
    "source": "pure_moe"
  },
  {
    "start": 93.9247,
    "end": 95.4108,
    "pitch": 47,
    "string": 5,
    "fret": 2,
    "velocity": 0.9958,
    "source": "pure_moe"
  },
  {
    "start": 93.9247,
    "end": 94.273,
    "pitch": 68,
    "string": 1,
    "fret": 4,
    "velocity": 0.9996,
    "source": "pure_moe"
  },
  {
    "start": 94.1569,
    "end": 94.8535,
    "pitch": 63,
    "string": 2,
    "fret": 4,
    "velocity": 0.9943,
    "source": "pure_moe"
  },
  {
    "start": 94.273,
    "end": 94.6213,
    "pitch": 68,
    "string": 1,
    "fret": 4,
    "velocity": 0.9193,
    "source": "pure_moe"
  },
  {
    "start": 94.3891,
    "end": 95.0625,
    "pitch": 57,
    "string": 3,
    "fret": 2,
    "velocity": 0.9947,
    "source": "pure_moe"
  },
  {
    "start": 94.6213,
    "end": 95.2947,
    "pitch": 69,
    "string": 1,
    "fret": 5,
    "velocity": 0.9972,
    "source": "pure_moe"
  },
  {
    "start": 94.8535,
    "end": 95.5269,
    "pitch": 63,
    "string": 2,
    "fret": 4,
    "velocity": 0.9969,
    "source": "pure_moe"
  },
  {
    "start": 95.0625,
    "end": 95.7591,
    "pitch": 57,
    "string": 3,
    "fret": 2,
    "velocity": 0.9988,
    "source": "pure_moe"
  },
  {
    "start": 95.2947,
    "end": 95.9913,
    "pitch": 66,
    "string": 1,
    "fret": 2,
    "velocity": 0.994,
    "source": "pure_moe"
  },
  {
    "start": 95.5269,
    "end": 96.2003,
    "pitch": 63,
    "string": 2,
    "fret": 4,
    "velocity": 0.9961,
    "source": "pure_moe"
  },
  {
    "start": 95.7591,
    "end": 96.4325,
    "pitch": 57,
    "string": 3,
    "fret": 2,
    "velocity": 0.9988,
    "source": "pure_moe"
  },
  {
    "start": 95.9913,
    "end": 97.4774,
    "pitch": 52,
    "string": 4,
    "fret": 2,
    "velocity": 0.9802,
    "source": "pure_moe"
  },
  {
    "start": 95.9913,
    "end": 96.6647,
    "pitch": 64,
    "string": 1,
    "fret": 0,
    "velocity": 0.9993,
    "source": "pure_moe"
  },
  {
    "start": 96.2003,
    "end": 96.6647,
    "pitch": 59,
    "string": 2,
    "fret": 0,
    "velocity": 0.9906,
    "source": "pure_moe"
  },
  {
    "start": 96.4325,
    "end": 97.1059,
    "pitch": 56,
    "string": 3,
    "fret": 1,
    "velocity": 0.9992,
    "source": "pure_moe"
  },
  {
    "start": 96.6647,
    "end": 98.1507,
    "pitch": 47,
    "string": 5,
    "fret": 2,
    "velocity": 0.9954,
    "source": "pure_moe"
  },
  {
    "start": 96.6647,
    "end": 96.8969,
    "pitch": 59,
    "string": 2,
    "fret": 0,
    "velocity": 0.9567,
    "source": "pure_moe"
  },
  {
    "start": 96.6647,
    "end": 97.338,
    "pitch": 64,
    "string": 1,
    "fret": 0,
    "velocity": 0.9941,
    "source": "pure_moe"
  },
  {
    "start": 96.8969,
    "end": 97.5702,
    "pitch": 59,
    "string": 2,
    "fret": 0,
    "velocity": 0.9729,
    "source": "pure_moe"
  },
  {
    "start": 97.1059,
    "end": 97.8024,
    "pitch": 56,
    "string": 3,
    "fret": 1,
    "velocity": 0.998,
    "source": "pure_moe"
  },
  {
    "start": 97.338,
    "end": 98.0114,
    "pitch": 44,
    "string": 6,
    "fret": 4,
    "velocity": 0.9972,
    "source": "pure_moe"
  },
  {
    "start": 97.338,
    "end": 97.4774,
    "pitch": 64,
    "string": 1,
    "fret": 0,
    "velocity": 0.9994,
    "source": "pure_moe"
  },
  {
    "start": 97.4774,
    "end": 98.3597,
    "pitch": 64,
    "string": 1,
    "fret": 0,
    "velocity": 0.9164,
    "source": "pure_moe"
  },
  {
    "start": 97.5702,
    "end": 98.2436,
    "pitch": 59,
    "string": 2,
    "fret": 0,
    "velocity": 0.9981,
    "source": "pure_moe"
  },
  {
    "start": 97.8024,
    "end": 99.2885,
    "pitch": 56,
    "string": 4,
    "fret": 6,
    "velocity": 0.9232,
    "source": "pure_moe"
  },
  {
    "start": 97.8024,
    "end": 98.1507,
    "pitch": 56,
    "string": 3,
    "fret": 1,
    "velocity": 0.9406,
    "source": "pure_moe"
  },
  {
    "start": 98.0114,
    "end": 99.4975,
    "pitch": 40,
    "string": 6,
    "fret": 0,
    "velocity": 0.9993,
    "source": "pure_moe"
  },
  {
    "start": 98.1507,
    "end": 99.6368,
    "pitch": 56,
    "string": 3,
    "fret": 1,
    "velocity": 0.9958,
    "source": "pure_moe"
  },
  {
    "start": 98.2436,
    "end": 99.7297,
    "pitch": 59,
    "string": 2,
    "fret": 0,
    "velocity": 0.9992,
    "source": "pure_moe"
  },
  {
    "start": 98.3597,
    "end": 98.6616,
    "pitch": 64,
    "string": 1,
    "fret": 0,
    "velocity": 0.9988,
    "source": "pure_moe"
  },
  {
    "start": 98.6616,
    "end": 99.0795,
    "pitch": 64,
    "string": 1,
    "fret": 0,
    "velocity": 0.9346,
    "source": "pure_moe"
  },
  {
    "start": 99.0795,
    "end": 99.335,
    "pitch": 64,
    "string": 1,
    "fret": 0,
    "velocity": 0.8588,
    "source": "pure_moe"
  },
  {
    "start": 99.335,
    "end": 99.4743,
    "pitch": 64,
    "string": 1,
    "fret": 0,
    "velocity": 0.8473,
    "source": "pure_moe"
  },
  {
    "start": 99.4743,
    "end": 99.7065,
    "pitch": 64,
    "string": 1,
    "fret": 0,
    "velocity": 0.8264,
    "source": "pure_moe"
  },
  {
    "start": 99.7065,
    "end": 100.9836,
    "pitch": 64,
    "string": 1,
    "fret": 0,
    "velocity": 0.9386,
    "source": "pure_moe"
  }
]